<svg version="1.2" baseProfile="tiny" xmlns="http://www.w3.org/2000/svg" viewBox="0 0 200 184" overflow="scroll"><path fill="#03161A" d="M92.44 31.36l2.51 1.565c.028 2.57.812 3.421 3.319 3.648 1.944.175 3.8-.203 5.662-.73 8.862-2.501 17.863-2.59 26.988-1.894 4.843.37 9.586 1.058 14.319 2.027 1.7.349 2.81-.743 3.91-1.788l3.637-4.331c1.297-.52 2.087-1.65 2.99-2.605 7.32-7.751 15.742-14.08 24.994-19.32 1.045-.592 2.242-2.213 3.619-.329.464 2.027.147 4.082.239 6.12-.02 4.063-1.11 7.914-2.354 11.734-.208.637-.433 1.29-.938 1.752-5.712 5.225-11.23 10.697-18.169 14.37-1.476.065-2.735.935-4.191 1.125-.856.11-.571.807-.465 1.356.705 2.497 1.813 4.847 2.547 7.33.45 1.527.796 3.06.917 4.646.392 3.286.35 6.627 1.26 9.844.938 3.343 1.655 6.769 3.558 9.764 1.18 2.929.557 5.66-.9 8.3-2.815 6.472-7.823 11.146-12.92 15.747-.985.862-1.738 2.001-3.02 2.512 1.27-.466 1.996-1.594 2.982-2.41.41-.42.918-.72 1.335-1.128 1.283-1.256 2.322-.963 3.236.468 2.161 3.387 3.92 6.935 4.496 10.972.837 4.09.314 8.243.617 12.355-1.405 6.88-4.715 12.767-9.309 18.012-1.123 1.282-2.655 1.194-3.888.974-1.003-.18-2.064-.482-3.11-.707-3.176-.682-4.173-3.137-4.75-5.922-.116-4.49-.036-8.977-.05-13.459.14-2.552.771-5.002 1.563-7.155-2.77 7.088-2.116 14.695-1.34 22.223.16 1.547 1.363 3.577 3.712 4.124 1.33.31 2.733.545 4.066.938 1.133.334 3 .636 4.1-1.245.984-1.684 2.042-1.503 2.827.258 1.757 3.938 4.164 7.626 4.66 12.059.455 4.06-.58 7.546-3.787 10.246-5.987 2.351-11.6 1.124-17.207-1.504-5.207-2.44-10.547-1.969-15.9-.111-5.85 2.03-11.584 4.414-17.611 5.918-7.661 1.911-15.392 2.09-23.18.973-2.027-.29-3.816-1.222-5.662-2.003-.307-.14-.622-.299-.819-.567-4.194-5.727-7.47-11.83-8.16-19.078-.205-2.145.636-3.058 2.654-3.4 1.897-.323 3.74-.925 5.42-1.912.85-.498 2.02-.864 2.004-2.024-.015-1.072-1.19-1.28-1.968-1.707-1.472-.807-3.067-1.34-4.622-1.956-1.774-.704-2.482-1.63-2.128-3.818.76-4.706 2.28-9.207 3.239-13.848.435-2.11 2.031-2.746 3.835-3.04 2.337-.38 4.565-1.025 6.613-2.235.649-.383 1.453-.687 1.462-1.568.01-.993-.845-1.399-1.591-1.742-1.673-.77-3.383-1.46-5.154-1.974-1.895-.551-2.497-1.784-2.058-3.64 1.914-8.092 3.054-16.326 4.31-24.53.804-5.245.766-10.61 1.643-15.856.599-3.582.831-7.314 2.997-10.463 2.688-.798 3.377-3.47 4.89-5.348.586-.726.226-1.629-.871-1.847-2.109-.418-4.23-1.001-6.3.18-7.14-1.535-13.92-4.057-20.392-7.425-.6-.312-1.202-.638-1.563-1.225-2.975-4.85-6.109-9.636-7.28-15.331-.745-3.626-.118-4.146 3.431-3.577 11.87 1.904 22.764 6.367 33.052 12.449.648.383 1.214.903 2.045.763z"/><path fill="#03161A" d="M61.227 108.714c-.691 3.183-2.353 6.001-3.44 9.038-.48 1.34-.185 1.897 1.023 2.454 2.263 1.045 4.433 2.29 6.693 3.341 1.072.499 1.3.972.746 2.075-1.193 2.373-2.16 4.859-3.364 7.225-.703 1.379-.45 2.073.978 2.63 1.216.474 2.331 1.204 3.491 1.82-.099.426-.356.708-.768.85-2.047.004-3.6-1.22-5.248-2.171-1.103-.637-.92-1.656-.515-2.662.814-2.02 1.674-4.022 2.68-5.955.76-1.457.487-2.486-.982-3.33-1.674-.963-3.356-1.902-5.157-2.59-1.693-.648-2.138-1.668-1.85-3.516.629-4.04 1.487-8.031 2.27-12.037.278-1.428-.532-1.564-1.498-1.673-3.74-.42-7.49-.749-11.168-1.612-3.049-.715-3.536-1.392-2.583-4.335 1.422-4.387 3.31-8.597 5.175-12.807.917-2.07 1.494-4.273 2.54-6.278.898-1.72.51-2.574-1.454-2.922-4.618-.819-9.19-1.88-13.783-2.824-10.202-2.099-20.501-3.09-30.922-2.632-3.322-.792-3.61-1.362-2.313-4.43 4.23-10.008 8.96-19.776 14.025-29.384 1.337-2.536 1.916-2.72 4.478-1.25 7.092 4.072 14.067 8.338 20.993 12.69 8.413 5.288 16.66 10.824 24.942 16.31 2.384 1.58 2.324 1.572.722 4.012-5.77 8.789-11.621 17.524-17.39 26.312-1.522 2.317-1.348 2.561 1.343 3.643 3.41 1.37 6.863 2.626 10.32 3.866 1.395.5 1.59 1.108 1.057 2.422-.479 1.181-1.414 2.285-1.041 3.72z"/><path fill="#010101" d="M66.78 137.886l.574-.589c.63.003 1.227.255 1.416-.828 2.778-15.957 7.56-31.496 9.98-47.525.98-6.492 1.825-13.014 2.412-19.552.63-7.019 1.73-13.885 4.823-20.28.79-1.632.369-2.106-1.276-2.44-12.89-2.616-24.419-8.256-35.054-15.878-5.14-3.683-9.539-8.124-13.516-13-.367-.45-1.06-.978-.758-1.712.226-.549.87-.399 1.343-.375 11.062.569 22.091 1.208 32.755 4.731 8.134 2.687 15.71 6.436 22.961 10.922-.76.759-1.315.154-1.965-.238-10.538-6.34-21.887-10.513-33.965-12.78-1.881-.354-2.556.265-2.248 2.04 1.099 6.328 4.29 11.774 7.95 16.815 1.58 2.177 4.841 2.847 7.505 3.803 4.522 1.622 8.972 3.51 13.773 4.238 1.158-.55 2.257-.135 3.336.249 1.198.427 1.656 1.301 1.278 2.532-.53 1.72-.919 3.51-2.23 4.875-2.138 3.156-2.55 6.88-2.916 10.456-1.256 12.233-2.873 24.404-5.065 36.505-.35 1.935-1.886 4.036-.77 5.776.991 1.547 3.45 1.376 5.168 2.227 1.538.762 3.809.981 3.849 3.03.038 1.948-2.246 2.188-3.636 3.02-1.914 1.146-4.133 1.27-6.231 1.698-1.53.312-2.11 1.137-2.42 2.442-1.077 4.53-2.403 8.995-3.294 13.579-.368 1.898.246 2.586 1.78 3.176 1.944.748 3.892 1.518 5.745 2.463 2.275 1.16 2.327 2.427.183 3.844-2.258 1.492-4.811 2.349-7.471 2.721-1.236.173-1.417.723-1.51 1.787-.212 2.408.387 4.726 1.192 6.854 1.793 4.736 3.6 9.54 7.451 13.141 2.943 2.195 5.756 4.608 9.453 5.518.422.104.69.45.79.896-.187 1.038-.448 2.013-1.783 2.053-1.546-1.63-3.381-2.846-5.267-4.068-6.067-3.93-8.735-10.288-11.388-16.601-1.135-2.7-1.635-5.571-1.688-8.487-.022-1.21-.453-1.762-1.581-2.135-3.46-1.143-6.867-2.451-10.33-3.585-1.478-.484-1.75-1.154-1.055-2.522.973-1.915 1.796-3.906 2.683-5.865.72-.103.79.421.892.917-.05 1.28-.624 2.398-1.161 3.514-.7 1.456-.272 2.386 1.207 2.895 2.272.782 4.563 1.508 6.803 2.385.582.228 1.306.71 1.84.087.534-.621-.038-1.237-.359-1.802-.166-.292-.317-.578-.205-.927zM183.95 7.17c-4.135 1.239-7.484 3.896-10.993 6.221-6.773 4.491-12.775 9.912-18.384 15.781-.43.451-.811 1.476-1.788.685 11.137-12.724 24.506-22.248 40.406-28.122 1.772-.655 3.461-1.602 5.41-1.72.968-.06 1.83 0 1.164 1.31-4.546 8.936-9.35 17.725-16.61 24.823-5.966 5.833-11.966 11.66-19.369 15.743-.566.237-1.034.308-.94-.561 6.673-3.867 12.378-8.968 17.847-14.317 1.886-1.844 1.849-4.752 2.535-7.193.502-1.786.936-3.715.714-5.656.423-2.331.408-4.663.008-6.995z"/><path fill="#030203" d="M61.227 108.714c-.975-1.326.125-2.393.57-3.437.554-1.297.473-1.884-.972-2.386-3.86-1.34-7.648-2.887-11.496-4.261-1.627-.581-1.84-1.206-.838-2.698 6.236-9.277 12.309-18.664 18.607-27.898 1.368-2.005-.178-2.328-1.143-2.96-10.051-6.583-20.091-13.185-30.23-19.632-5.277-3.356-10.736-6.427-16.13-9.597-1.467-.862-2.334-.68-3.28 1.114-5.066 9.609-9.68 19.423-14.062 29.356-.94 2.13-1.088 3.668 1.686 4.165.932-.13 1.82.058 2.694.36 10.98 3.807 21.998 7.494 33.171 10.702 2.799.804 3.246 1.627 2.332 4.405-1.463 4.45-2.463 9.04-4.118 13.425-.714 1.891-.298 2.98 1.719 3.554 3.217.915 6.296 2.25 9.462 3.328 2.431.829 2.69 1.471 1.957 3.962-1.251 4.25-2.51 8.497-4.067 12.65-.335.515-.727.849-1.352.417.02-3.13 1.471-5.903 2.22-8.85.223-.879.511-1.74.768-2.61 1.007-3.41 1.002-3.398-2.464-4.649-3.13-1.13-6.22-2.381-9.385-3.4-1.566-.504-1.86-1.093-1.332-2.685 1.646-4.959 2.981-10.022 4.665-14.968.654-1.92.266-2.504-1.637-3.055-11.821-3.419-23.585-7.038-35.035-11.575-4.534-1.797-4.027-.845-2.246-5.253 4.285-10.608 9.61-20.729 14.687-30.964.67-1.349 1.216-1.643 2.602-.933 6.353 3.255 12.322 7.144 18.394 10.87 10.236 6.283 20.252 12.901 30.209 19.615 1.622 1.094 1.95 1.716.717 3.518-6.04 8.83-11.888 17.79-17.768 26.728-.868 1.32-1.924 2.437.99 3.146 3.833.932 7.433 2.796 11.166 4.17 1.115.41 1.404.803.81 1.931-.74 1.404-1.258 2.925-1.871 4.395z"/><path fill="#224170" d="M97.999 34.884c4.722-1.227 9.13-3.465 13.95-4.365 12.295-2.296 24.282-1.56 35.795 3.714-.77 1.523-2.114 1.78-3.613 1.57-4.448-.623-8.885-1.258-13.375-1.607-7.423-.578-14.782-.824-22.131.78-2.353.513-4.674 1.162-7.039 1.61-1.576.299-3.013.174-3.587-1.702z"/><path fill="#030202" d="M152.752 99.673c2.48-3.243 5.819-5.676 8.292-8.954 1.603-2.122 3.064-4.291 4.272-6.646.352-.29.7-.328 1.046.01-1.46 4.54-4.736 7.818-7.942 11.079-1.397 1.422-1.387 2.343-.358 3.959 4.95 7.769 6.879 16.21 4.729 25.287a31.374 31.374 0 0 1-5.347 11.486c-1.273 1.713-1.01 3.123-.276 4.833 1.537 3.58 3.507 6.945 4.304 10.884.78 3.85-.142 7.063-2.208 10.148-1.345 2.009-2.642 4.072-4.802 5.356-.634.26-1.034 2.412-1.97.244 1.094-2.137 2.729-3.737 4.84-4.864 4.448-4.968 4.055-10.4 1.494-16.01-.897-1.967-2.025-3.833-2.836-5.831-.53-1.305-1.378-1.53-1.749-.354-.806 2.554-2.927 2.026-4.373 1.778-1.29-.222-2.677-.386-3.96-.787-3.018-.943-4.84-2.82-5.082-6.193-.508-7.061-.89-14.088 1.658-20.895.31-.828.347-1.858 1.657-2.177-.391 3.012-2.152 5.656-1.927 8.7a83.398 83.398 0 0 0 .002 14.657c.755 2.455 1.797 4.761 4.769 4.895 1.212.055 2.043.924 3.264.88 2.228-.083 3.256-1.67 4.441-3.122 3.685-4.513 5.864-9.778 7.618-15.255-.521-2.508.192-5.028-.147-7.575-.246-1.847-.398-3.703-.847-5.52-.408-3.983-2.269-7.368-4.417-10.624-.522-.792-1.17-1.087-2.04-.279-.593.552-1.36.916-2.05 1.363-.176-.086-.243-.185-.2-.296.044-.118.092-.177.145-.177z"/><path fill="#04161A" d="M86.39 174.08l1.569-2.106c.819-.659 1.636-.366 2.456-.006 2.352 1.083 4.86.866 7.341.908 1.216.021 2.56-.204 3.279 1.208.562 1.471 1.144 2.935 1.68 4.415.427 1.18.867 2.49-.278 3.434-1.375 1.133-3.07 1.853-4.808.999-4.362-2.144-8.171-5.04-11.24-8.852z"/><path fill="#051619" d="M152.782 167.076c.517 1.93 1.13-.35 1.68.038-.679 1.03.077 1.707.614 2.417 1.304 1.727 2.481 3.535 3.266 5.555.502 1.293 1.135 2.698-.266 3.863-1.341 1.114-2.854 1.34-4.38.431-3.56-2.118-7.052-4.335-9.99-7.306.086-.385.315-.628.704-.711 1.235-.052 1.98 1.673 3.133 1.165 1.062-.468 1.102-1.998 1.83-2.905.912-1.134 1.667-2.512 3.409-2.547z"/><path fill="#152D47" d="M97.999 34.884c1.285 1.017 2.56 1.464 4.33.998 7.745-2.036 15.631-3.194 23.655-2.548 5.109.411 10.255.63 15.288 1.741 2.27.501 4.43.33 6.472-.841l1.404-.047c-.316 2.447-1.935 3.017-3.985 2.497-9.984-2.53-20.172-2.719-30.336-2.255-4.335.198-8.65 1.517-12.934 2.58-2.67.663-5.659 1.208-7.714-1.772-.868-1.258-.51-1.882.77-2.313l3.05 1.96z"/><path fill="#050404" d="M144.268 171.482l-.562.592c-1.968-1.24-4.21-.787-6.323-.905-4.736-.265-9.469-.278-14.2-.926-2.39-.327-4.961.282-7.399.743-4.935.933-9.835 2.054-14.75 3.098-1.797-.972-3.743-.438-5.621-.513-1.89-.075-3.752-.176-5.485-1.034.553-.63 1.33-.766 2.067-.707 8.049.648 15.783-1.32 23.589-2.741 4.968-.904 9.939-1.123 14.958-.081 3.12.647 6.343.163 9.518.265 1.174.037 2.353.056 3.42.634.612.332 1.154.736.788 1.575z"/><path fill="#060505" d="M166.337 75.526c-2.169-2.628-2.488-5.97-3.498-9.047-.98-3.459-.548-7.121-1.526-10.58-.05-3.475-1.439-6.592-2.622-9.763-.287-.77-.594-1.533-.891-2.299 2.2-1.915 3.055-2.119 4.53-1.081-.695.455-1.357.974-2.093 1.35-.845.433-.993.923-.596 1.792 2.511 5.506 3.533 11.355 3.96 17.347.294 4.105 1.725 7.907 3.306 11.658.227.588-.066.702-.57.623z"/><path fill="#101119" d="M45.737 123.283c.428-.037.803-.164 1.011-.583.87-.308 1.641.059 2.41.372 3.013 1.225 5.91 2.723 8.982 3.816.953.339 2 .878 1.873 2.06-.123 1.145-.178 2.534-1.772 2.853-.016-.398-.084-.77-.478-.984.575-1.373.276-2.005-1.27-2.68-3.602-1.57-7.402-2.733-10.756-4.854z"/><path fill="#2D281C" d="M166.337 75.526l.57-.623c2.222 3.203 1.225 6.214-.545 9.18l-1.046-.01c1.44-2.718 1.826-5.561 1.021-8.547z"/><path fill="#334360" d="M162.33 42.756c-.717-.796-1.433-.468-2.143.009-.735.493-1.442 1.048-2.387 1.072-.028-.467-.15-1.323-.07-1.343 1.7-.41 3.228-1.615 5.115-1.164.113.526.604.414.942.56-.319.571-.907.686-1.457.866z"/><path fill="#B98360" d="M154.73 82.104c.384 2.799-.73 4.797-2.764 6.785-2.722 2.663-4.438 6.224-7.183 8.949-1.203 1.194-2.445 1.788-4.164 1.87-5.074.238-10.14.652-15.209 1.003-1.67.115-3.131-.339-4.32-1.554-1.23-1.128-1.705-2.66-2.128-4.18-2.461-8.836-2.104-17.63.475-26.374.075-.23.189-.454.26-.692.044-.143-.062-.138-.231.048-1.282 1.412-2.752 2.644-3.846 4.24-.474.69-.902 1.706-2.12 1.278-.557-.617-.579-1.362-.434-2.1.445-2.262 1.002-4.501 1.58-6.732.28-1.08.917-1.937 2.121-2.175 5.042.784 10.064 1.65 14.114 5.14.676.583 1.183.67 1.969.18 3.56-2.22 7.349-3.866 11.506-4.683 2.633-.517 5.02-1.752 7.285-3.201 2.023-.322 1.836 1.346 1.996 2.426.4 2.692.056 5.424.557 8.152.7 3.82.725 7.729.536 11.62z"/><path fill="#234373" d="M144.268 171.482c-.286-1.338-1.543-1.358-2.392-1.357-5.935.007-11.817-.67-17.723-1.035-5.744-.356-11.425 1.035-17.007 2.474-5.68 1.465-11.466.883-17.218.973-.511-.696-1.29-.455-1.97-.562-3.857-1.311-7.644-2.733-10.03-6.363 5.506 2.31 11.305 2.493 17.144 2.349 7.075-.175 13.75-2.111 20.385-4.424 5.777-2.013 11.336-4.898 17.755-4.67 2.489.087 4.854.615 6.993 1.628 5.293 2.508 10.562 4.136 16.308 1.609.36-.159.624.094.819.39a22.663 22.663 0 0 1-4.55 4.582c-2.152 1.448-3.6 3.448-4.402 5.882-.34 1.032-.685 1.215-1.53.496-.823-.701-1.718-1.318-2.582-1.972z"/><path fill="#050D14" d="M109.987 59.082c-3.067-2.831-2.626-6.555-2.358-10.121.065-.866-.53-3.121 1.927-2.555 1.675 2.836 3.3 5.706 5.624 8.092.15.18.28.372.399.573.595 1.665 1.862 2.2 3.529 2.233 2.275.046 4.455-.615 6.684-.667.417-.927-.758-1.077-.673-1.754.76-1.534 1.549-3.054 2.27-4.605.498-1.071 1.235-1.548 2.004-.473 1.446 2.019 3.699 2.388 5.77 3.134 1.658.597 2.485 1.377 1.153 3.062-1.038 1.314-.271 1.85.981 1.895 2.256.08 4.459.483 6.664.891.55.103.936.003 1.3-.462 3.154-4.02 6.309-8.04 7.786-13.051.14-.473.334-.749.767-.829.472-.087.717.186.946.608 2.404 4.435 3.181 9.163 2.705 14.155-.158 1.66-.133 3.338-.17 5.009-.023 1.041-.008 2.172-1.43 2.178-1.5.006-.98-1.25-1.076-2.068-.059-.501-.027-1.009-.452-1.38-1.272-1.51-.462-3.292-.658-4.816-.207 1.142-1.29 1.514-2.23 2.034-2.636 2.26-5.98 2.785-9.16 3.67-3.273.912-6.425 2.073-9.236 4.003-1.008.692-1.842.383-2.408-.375-1.804-2.417-4.091-3.11-7.114-3.481-3.712-.456-7.466-1.521-11.047-2.883-1.05-.404-2.327-.529-2.497-2.017z"/><path fill="#6D5146" d="M109.987 59.082c.56.89 1.467 1.192 2.416 1.421 1.076.565 2.119 1.175 3.353 1.415.51.099 1.437-.015 1.324 1.024-.377.152-1.01.22-1.093.47-1.083 3.268-2.636 6.459-1.946 10.071.615.54.248 1.125.187 1.332 1.227-2.585 2.572-5.531 5.901-6.818-1.072 4.796-1.999 9.597-2.09 14.551-.106 5.767 1.088 11.247 3.05 16.609-1.946-.532-3.063-2.217-4.523-3.387-2.902-2.326-5.623-4.881-8.358-7.408-1.11-1.026-1.683-2.15-1.37-3.939 1.068-6.1 1.594-12.249 1.67-18.48.025-2.102-.622-4.955 1.479-6.861z"/><path fill="#020202" d="M90.416 124.898c4.495 7.735 10.823 13.505 18.886 17.313 1.176.555 1.94 2.082 3.62 1.61 3.051-.86 6.108-1.969 7.588-4.892.686-1.354.185-3.37.044-5.072-.607-7.327-3.208-13.938-7.414-19.925-1.225-1.744-2.608-3.377-3.654-5.322 1.995.934 3.266 2.774 4.384 4.453 3.197 4.802 5.78 9.944 6.945 15.68.662 3.25.377 6.655 1.589 9.82.075.198.028.589-.113.702-2.504 2.024-4.555 4.436-7.991 5.433-3.664 1.062-5.41-1.665-7.871-2.81-4.806-2.234-8.709-5.83-12.44-9.564-2.18-1.417-3.305-3.678-4.53-5.824-.413-.726-.966-2.036.957-1.602z"/><path fill="#234373" d="M138.84 106.402c-1.89 2.862-4.02 4.324-6.456 5.158-1.862.638-3.356-.67-4.598-1.919-.914-.919-2.746-1.776-2.376-2.947.468-1.482 2.177-.17 3.33-.233 3.152-.17 6.32-.059 10.1-.059z"/><path fill="#233E64" d="M90.416 124.898c-1.82.186-.617 1.151-.32 1.624 1.24 1.971 2.585 3.874 3.892 5.802-5.778-.534-9.41-6.848-6.951-12.083.315-.671.748-1.124 1.545-.74 1.175.568 2.3 3.918 1.834 5.397z"/><path fill="#E8E6E3" d="M137.464 56.527l12.35-8.175c-.656 3.925-3.03 6.198-4.832 8.776-.384.55-1.016.392-1.612.292-1.696-.286-3.4-.519-5.906-.893z"/><path fill="#2F3437" d="M125.119 54.883l2.924 1.63c-4.062 1.184-7.612 1.816-11.245 1.107-1.172-.228-1.636-1.524-1.676-2.77 2.703 1.475 5.586 1.787 8.973 1.271-4.049-1.788-7.592-3.846-11.077-6.01.547 1.668 2.627 2.62 2.109 4.744-2.7-2.261-4.719-4.971-5.572-8.45 1.79.33 3.071 1.632 4.491 2.561 3.528 2.308 7.41 3.897 11.073 5.917z"/><path fill="#26416A" d="M85.874 52.894c.09-1.61.881-2.997 1.499-4.42.72-1.659.263-2.413-1.493-2.616-.81-.094-1.595-.406-2.391-.62 1.237-.836 6.366-1.059 7.295-.181.809.764.685 1.857.14 2.708-.996 1.554-2.124 3.024-3.232 4.503-.442.59-1.14.624-1.818.626z"/><path fill="#2F2E2A" d="M151.237 59.938l3.098-2.555.001 5.563c-.51 5.393 1.13 10.66.94 16.034-.037 1.07.12 2.167-.546 3.124-.96-3.57-.198-7.266-.87-10.887-.606-3.258-.782-6.608-.97-9.928-.088-1.537-.875-.96-1.616-.822-.157-.107-.215-.221-.174-.342.043-.125.089-.187.137-.187z"/><path fill="#252912" d="M161.314 109.686c1.225 3.449 1.682 6.985 1.231 10.629-.1.82-.159 1.644-.237 2.466-.873-.83-.46-1.897-.47-2.857-.034-3.42.06-6.846-.524-10.238z"/><path fill="#2C3015" d="M142.216 135.383c-1.114-3.224-.35-6.55-.473-9.825-.059-1.594-.539-3.31.47-4.83l.003 14.655z"/><path fill="#2C3014" d="M161.313 55.899c1.386 3.4.977 7.059 1.526 10.58-1.424-3.395-1.036-7.05-1.526-10.58z"/><path fill="#323513" d="M152.752 99.673c.013.158.03.316.054.473-.948 1.612-2.65 2.31-4.134 3.292.985-1.653 2.716-2.517 4.08-3.765z"/><path fill="#313414" d="M183.95 7.17c.79 2.332.8 4.664-.008 6.994l.008-6.995z"/><path fill="#234373" d="M58.241 131.8c1.906-3.534 1.874-3.453-1.615-4.835-3.333-1.32-6.589-2.835-9.878-4.264 1.106-3.728 2.211-7.455 3.32-11.18.142-.481.24-.988.462-1.43.99-1.96.119-2.76-1.749-3.344-3.509-1.098-6.94-2.439-10.43-3.604-1.491-.497-1.901-1.179-1.362-2.783 1.622-4.83 2.944-9.763 4.617-14.575.76-2.186.375-3.058-1.917-3.685-12.097-3.308-23.997-7.242-35.75-11.62.37-.616.985-.542 1.563-.547 8.426-.066 16.815.466 25.106 1.98 6.613 1.207 13.17 2.729 19.778 3.971 1.769.333 1.68.89 1.107 2.315-2.748 6.846-5.893 13.529-8.366 20.49-.681 1.917-.467 2.84 1.743 3.228 4.176.734 8.361 1.372 12.585 1.677 1.635.118 1.507.598 1.246 2.005-.64 3.454-2.179 6.746-1.97 10.357.005.083.03.185-.005.248-2.17 3.825.738 4.569 3.32 5.796 5.475 2.602 5.434 2.689 2.83 8.169-2.384 5.014-2.385 5.017 2.721 7.331.376.17.788.259 1.183.385.55.568 1.499.759 1.511 1.828.016 1.429.008 2.568-2.016 1.778a132.8 132.8 0 0 0-8.473-2.987c-1.635-.514-1.908-1.349-1.22-2.798.606-1.277 1.11-2.602 1.66-3.905z"/><path fill="#244271" d="M76.022 114.544c-.937.188-1.22-.234-1.003-1.107.02-.08.051-.16.072-.24.51-1.976.13-5.198 1.817-5.599 2.182-.518 4.737 1.095 6.916 2.318 1.398.784.793 1.629-.223 2.222-2.338 1.365-4.963 1.88-7.58 2.406zM69.343 140.861c.12-.568.274-1.13.353-1.705.551-4.015.547-4.017 4.502-2.464.695.273 1.408.515 2.065.863.774.41 2.023.536 2.01 1.599-.015 1.235-1.232 1.721-2.231 2.077-1.559.554-3.187.91-4.772 1.396-1.684.515-2.129-.243-1.927-1.766z"/><path fill="#03161A" d="M151.237 59.938l.037.529c-2.474 2.546-5.841 3.076-9.046 3.841-3.377.807-6.365 2.356-9.267 4.152-.51.315-.892 1.197-1.629.402-3.716-4.01-8.877-4.59-13.76-5.833-.161-.04-.328-.058-.492-.087-1.35-1.213-3.634-.635-4.676-2.44 3.495 1.029 6.99 2.06 10.488 3.08.47.138 1.18.476 1.405.283 2.57-2.185 3.81 1.472 5.922 1.323.433-.03.019.73.114 1.071.393 1.412 2.2 2.046 2.725.93.677-1.442 1.863-1.014 2.816-1.47 4.03-1.93 8.42-2.645 12.556-4.163 1-.366 1.875-1.07 2.807-1.618z"/><path fill="#624538" d="M122.527 76.301c2.953-3.008 17.354-2.945 20.664-.023-6.886-1.036-13.585-1.52-20.664.023z"/><path fill="#4B3730" d="M120.13 67.997c-3.212 2.172-4.876 5.512-6.587 9.148-.954-1.64 1.014-2.448.498-3.661 1.36-2.426 3.388-4.295 5.24-6.311.407-.444.95-.997 1.461-.47.627.645-.206.944-.613 1.294z"/><path fill="#5D4334" d="M128.13 82.748c1.747-1.654 6.202-1.676 8.29-.029-2.69-.225-5.377-.197-8.29.029z"/><path fill="#03161A" d="M128.96 51.916c.87-.028 1.17.457 1.171 1.257 0 .832-.367 1.267-1.217 1.179-.777-.081-1.195-.556-1.238-1.326-.05-.902.507-1.145 1.283-1.11z"/><path fill="#E3E3E3" d="M115.127 54.855c-.723-2.106-2.63-3.569-3.39-6.157 4.792 2.662 9.068 5.445 13.656 7.789-3.484-.425-7.42 2.4-10.271-1.638l.005.006z"/></svg>