<svg baseProfile="full" width="405" height="405" viewBox="0 0 405 405" xmlns="http://www.w3.org/2000/svg" xmlns:xlink="http://www.w3.org/1999/xlink"><path fill="#fff" d="M0 0h405v405H0z"/><defs><path id="a" d="M0 0h9v9H0z"/></defs><use x="36" y="36" xlink:href="#a"/><use x="36" y="45" xlink:href="#a"/><use x="36" y="54" xlink:href="#a"/><use x="36" y="63" xlink:href="#a"/><use x="36" y="72" xlink:href="#a"/><use x="36" y="81" xlink:href="#a"/><use x="36" y="90" xlink:href="#a"/><use x="36" y="108" xlink:href="#a"/><use x="36" y="117" xlink:href="#a"/><use x="36" y="135" xlink:href="#a"/><use x="36" y="162" xlink:href="#a"/><use x="36" y="198" xlink:href="#a"/><use x="36" y="207" xlink:href="#a"/><use x="36" y="243" xlink:href="#a"/><use x="36" y="252" xlink:href="#a"/><use x="36" y="261" xlink:href="#a"/><use x="36" y="270" xlink:href="#a"/><use x="36" y="288" xlink:href="#a"/><use x="36" y="306" xlink:href="#a"/><use x="36" y="315" xlink:href="#a"/><use x="36" y="324" xlink:href="#a"/><use x="36" y="333" xlink:href="#a"/><use x="36" y="342" xlink:href="#a"/><use x="36" y="351" xlink:href="#a"/><use x="36" y="360" xlink:href="#a"/><use x="45" y="36" xlink:href="#a"/><use x="45" y="90" xlink:href="#a"/><use x="45" y="117" xlink:href="#a"/><use x="45" y="126" xlink:href="#a"/><use x="45" y="135" xlink:href="#a"/><use x="45" y="144" xlink:href="#a"/><use x="45" y="153" xlink:href="#a"/><use x="45" y="171" xlink:href="#a"/><use x="45" y="180" xlink:href="#a"/><use x="45" y="189" xlink:href="#a"/><use x="45" y="198" xlink:href="#a"/><use x="45" y="207" xlink:href="#a"/><use x="45" y="216" xlink:href="#a"/><use x="45" y="234" xlink:href="#a"/><use x="45" y="243" xlink:href="#a"/><use x="45" y="261" xlink:href="#a"/><use x="45" y="279" xlink:href="#a"/><use x="45" y="288" xlink:href="#a"/><use x="45" y="306" xlink:href="#a"/><use x="45" y="360" xlink:href="#a"/><use x="54" y="36" xlink:href="#a"/><use x="54" y="54" xlink:href="#a"/><use x="54" y="63" xlink:href="#a"/><use x="54" y="72" xlink:href="#a"/><use x="54" y="90" xlink:href="#a"/><use x="54" y="108" xlink:href="#a"/><use x="54" y="144" xlink:href="#a"/><use x="54" y="162" xlink:href="#a"/><use x="54" y="171" xlink:href="#a"/><use x="54" y="180" xlink:href="#a"/><use x="54" y="189" xlink:href="#a"/><use x="54" y="207" xlink:href="#a"/><use x="54" y="225" xlink:href="#a"/><use x="54" y="252" xlink:href="#a"/><use x="54" y="261" xlink:href="#a"/><use x="54" y="306" xlink:href="#a"/><use x="54" y="324" xlink:href="#a"/><use x="54" y="333" xlink:href="#a"/><use x="54" y="342" xlink:href="#a"/><use x="54" y="360" xlink:href="#a"/><use x="63" y="36" xlink:href="#a"/><use x="63" y="54" xlink:href="#a"/><use x="63" y="63" xlink:href="#a"/><use x="63" y="72" xlink:href="#a"/><use x="63" y="90" xlink:href="#a"/><use x="63" y="108" xlink:href="#a"/><use x="63" y="135" xlink:href="#a"/><use x="63" y="144" xlink:href="#a"/><use x="63" y="153" xlink:href="#a"/><use x="63" y="162" xlink:href="#a"/><use x="63" y="189" xlink:href="#a"/><use x="63" y="198" xlink:href="#a"/><use x="63" y="207" xlink:href="#a"/><use x="63" y="252" xlink:href="#a"/><use x="63" y="270" xlink:href="#a"/><use x="63" y="279" xlink:href="#a"/><use x="63" y="288" xlink:href="#a"/><use x="63" y="306" xlink:href="#a"/><use x="63" y="324" xlink:href="#a"/><use x="63" y="333" xlink:href="#a"/><use x="63" y="342" xlink:href="#a"/><use x="63" y="360" xlink:href="#a"/><use x="72" y="36" xlink:href="#a"/><use x="72" y="54" xlink:href="#a"/><use x="72" y="63" xlink:href="#a"/><use x="72" y="72" xlink:href="#a"/><use x="72" y="90" xlink:href="#a"/><use x="72" y="117" xlink:href="#a"/><use x="72" y="126" xlink:href="#a"/><use x="72" y="153" xlink:href="#a"/><use x="72" y="171" xlink:href="#a"/><use x="72" y="225" xlink:href="#a"/><use x="72" y="243" xlink:href="#a"/><use x="72" y="270" xlink:href="#a"/><use x="72" y="279" xlink:href="#a"/><use x="72" y="288" xlink:href="#a"/><use x="72" y="306" xlink:href="#a"/><use x="72" y="324" xlink:href="#a"/><use x="72" y="333" xlink:href="#a"/><use x="72" y="342" xlink:href="#a"/><use x="72" y="360" xlink:href="#a"/><use x="81" y="36" xlink:href="#a"/><use x="81" y="90" xlink:href="#a"/><use x="81" y="108" xlink:href="#a"/><use x="81" y="117" xlink:href="#a"/><use x="81" y="135" xlink:href="#a"/><use x="81" y="144" xlink:href="#a"/><use x="81" y="153" xlink:href="#a"/><use x="81" y="162" xlink:href="#a"/><use x="81" y="171" xlink:href="#a"/><use x="81" y="198" xlink:href="#a"/><use x="81" y="207" xlink:href="#a"/><use x="81" y="225" xlink:href="#a"/><use x="81" y="252" xlink:href="#a"/><use x="81" y="261" xlink:href="#a"/><use x="81" y="306" xlink:href="#a"/><use x="81" y="360" xlink:href="#a"/><use x="90" y="36" xlink:href="#a"/><use x="90" y="45" xlink:href="#a"/><use x="90" y="54" xlink:href="#a"/><use x="90" y="63" xlink:href="#a"/><use x="90" y="72" xlink:href="#a"/><use x="90" y="81" xlink:href="#a"/><use x="90" y="90" xlink:href="#a"/><use x="90" y="108" xlink:href="#a"/><use x="90" y="126" xlink:href="#a"/><use x="90" y="144" xlink:href="#a"/><use x="90" y="162" xlink:href="#a"/><use x="90" y="180" xlink:href="#a"/><use x="90" y="198" xlink:href="#a"/><use x="90" y="216" xlink:href="#a"/><use x="90" y="234" xlink:href="#a"/><use x="90" y="252" xlink:href="#a"/><use x="90" y="270" xlink:href="#a"/><use x="90" y="288" xlink:href="#a"/><use x="90" y="306" xlink:href="#a"/><use x="90" y="315" xlink:href="#a"/><use x="90" y="324" xlink:href="#a"/><use x="90" y="333" xlink:href="#a"/><use x="90" y="342" xlink:href="#a"/><use x="90" y="351" xlink:href="#a"/><use x="90" y="360" xlink:href="#a"/><use x="99" y="108" xlink:href="#a"/><use x="99" y="126" xlink:href="#a"/><use x="99" y="144" xlink:href="#a"/><use x="99" y="198" xlink:href="#a"/><use x="99" y="207" xlink:href="#a"/><use x="99" y="216" xlink:href="#a"/><use x="99" y="234" xlink:href="#a"/><use x="99" y="270" xlink:href="#a"/><use x="99" y="279" xlink:href="#a"/><use x="99" y="288" xlink:href="#a"/><use x="108" y="36" xlink:href="#a"/><use x="108" y="45" xlink:href="#a"/><use x="108" y="63" xlink:href="#a"/><use x="108" y="90" xlink:href="#a"/><use x="108" y="99" xlink:href="#a"/><use x="108" y="135" xlink:href="#a"/><use x="108" y="144" xlink:href="#a"/><use x="108" y="162" xlink:href="#a"/><use x="108" y="171" xlink:href="#a"/><use x="108" y="216" xlink:href="#a"/><use x="108" y="234" xlink:href="#a"/><use x="108" y="243" xlink:href="#a"/><use x="108" y="252" xlink:href="#a"/><use x="108" y="279" xlink:href="#a"/><use x="108" y="297" xlink:href="#a"/><use x="108" y="306" xlink:href="#a"/><use x="108" y="315" xlink:href="#a"/><use x="108" y="333" xlink:href="#a"/><use x="108" y="342" xlink:href="#a"/><use x="108" y="360" xlink:href="#a"/><use x="117" y="45" xlink:href="#a"/><use x="117" y="81" xlink:href="#a"/><use x="117" y="135" xlink:href="#a"/><use x="117" y="153" xlink:href="#a"/><use x="117" y="171" xlink:href="#a"/><use x="117" y="216" xlink:href="#a"/><use x="117" y="225" xlink:href="#a"/><use x="117" y="243" xlink:href="#a"/><use x="117" y="252" xlink:href="#a"/><use x="117" y="261" xlink:href="#a"/><use x="117" y="270" xlink:href="#a"/><use x="117" y="306" xlink:href="#a"/><use x="117" y="333" xlink:href="#a"/><use x="117" y="360" xlink:href="#a"/><use x="126" y="45" xlink:href="#a"/><use x="126" y="54" xlink:href="#a"/><use x="126" y="63" xlink:href="#a"/><use x="126" y="72" xlink:href="#a"/><use x="126" y="90" xlink:href="#a"/><use x="126" y="99" xlink:href="#a"/><use x="126" y="108" xlink:href="#a"/><use x="126" y="117" xlink:href="#a"/><use x="126" y="126" xlink:href="#a"/><use x="126" y="243" xlink:href="#a"/><use x="126" y="252" xlink:href="#a"/><use x="126" y="270" xlink:href="#a"/><use x="126" y="288" xlink:href="#a"/><use x="126" y="306" xlink:href="#a"/><use x="126" y="324" xlink:href="#a"/><use x="126" y="342" xlink:href="#a"/><use x="126" y="351" xlink:href="#a"/><use x="126" y="360" xlink:href="#a"/><use x="135" y="36" xlink:href="#a"/><use x="135" y="45" xlink:href="#a"/><use x="135" y="54" xlink:href="#a"/><use x="135" y="72" xlink:href="#a"/><use x="135" y="126" xlink:href="#a"/><use x="135" y="144" xlink:href="#a"/><use x="135" y="153" xlink:href="#a"/><use x="135" y="189" xlink:href="#a"/><use x="135" y="198" xlink:href="#a"/><use x="135" y="216" xlink:href="#a"/><use x="135" y="252" xlink:href="#a"/><use x="135" y="279" xlink:href="#a"/><use x="135" y="306" xlink:href="#a"/><use x="135" y="315" xlink:href="#a"/><use x="135" y="333" xlink:href="#a"/><use x="135" y="342" xlink:href="#a"/><use x="135" y="360" xlink:href="#a"/><use x="144" y="36" xlink:href="#a"/><use x="144" y="45" xlink:href="#a"/><use x="144" y="81" xlink:href="#a"/><use x="144" y="90" xlink:href="#a"/><use x="144" y="99" xlink:href="#a"/><use x="144" y="126" xlink:href="#a"/><use x="144" y="144" xlink:href="#a"/><use x="144" y="162" xlink:href="#a"/><use x="144" y="171" xlink:href="#a"/><use x="144" y="180" xlink:href="#a"/><use x="144" y="189" xlink:href="#a"/><use x="144" y="225" xlink:href="#a"/><use x="144" y="234" xlink:href="#a"/><use x="144" y="243" xlink:href="#a"/><use x="144" y="252" xlink:href="#a"/><use x="144" y="306" xlink:href="#a"/><use x="144" y="324" xlink:href="#a"/><use x="144" y="342" xlink:href="#a"/><use x="144" y="351" xlink:href="#a"/><use x="153" y="36" xlink:href="#a"/><use x="153" y="45" xlink:href="#a"/><use x="153" y="63" xlink:href="#a"/><use x="153" y="72" xlink:href="#a"/><use x="153" y="117" xlink:href="#a"/><use x="153" y="126" xlink:href="#a"/><use x="153" y="135" xlink:href="#a"/><use x="153" y="144" xlink:href="#a"/><use x="153" y="153" xlink:href="#a"/><use x="153" y="171" xlink:href="#a"/><use x="153" y="216" xlink:href="#a"/><use x="153" y="225" xlink:href="#a"/><use x="153" y="234" xlink:href="#a"/><use x="153" y="243" xlink:href="#a"/><use x="153" y="261" xlink:href="#a"/><use x="153" y="288" xlink:href="#a"/><use x="153" y="297" xlink:href="#a"/><use x="153" y="306" xlink:href="#a"/><use x="153" y="324" xlink:href="#a"/><use x="162" y="90" xlink:href="#a"/><use x="162" y="99" xlink:href="#a"/><use x="162" y="108" xlink:href="#a"/><use x="162" y="117" xlink:href="#a"/><use x="162" y="135" xlink:href="#a"/><use x="162" y="144" xlink:href="#a"/><use x="162" y="153" xlink:href="#a"/><use x="162" y="162" xlink:href="#a"/><use x="162" y="171" xlink:href="#a"/><use x="162" y="207" xlink:href="#a"/><use x="162" y="261" xlink:href="#a"/><use x="162" y="279" xlink:href="#a"/><use x="162" y="288" xlink:href="#a"/><use x="162" y="306" xlink:href="#a"/><use x="171" y="45" xlink:href="#a"/><use x="171" y="72" xlink:href="#a"/><use x="171" y="108" xlink:href="#a"/><use x="171" y="117" xlink:href="#a"/><use x="171" y="144" xlink:href="#a"/><use x="171" y="153" xlink:href="#a"/><use x="171" y="180" xlink:href="#a"/><use x="171" y="207" xlink:href="#a"/><use x="171" y="216" xlink:href="#a"/><use x="171" y="243" xlink:href="#a"/><use x="171" y="252" xlink:href="#a"/><use x="171" y="279" xlink:href="#a"/><use x="171" y="306" xlink:href="#a"/><use x="171" y="315" xlink:href="#a"/><use x="171" y="333" xlink:href="#a"/><use x="171" y="342" xlink:href="#a"/><use x="171" y="351" xlink:href="#a"/><use x="180" y="81" xlink:href="#a"/><use x="180" y="90" xlink:href="#a"/><use x="180" y="99" xlink:href="#a"/><use x="180" y="126" xlink:href="#a"/><use x="180" y="135" xlink:href="#a"/><use x="180" y="144" xlink:href="#a"/><use x="180" y="153" xlink:href="#a"/><use x="180" y="171" xlink:href="#a"/><use x="180" y="207" xlink:href="#a"/><use x="180" y="216" xlink:href="#a"/><use x="180" y="225" xlink:href="#a"/><use x="180" y="252" xlink:href="#a"/><use x="180" y="306" xlink:href="#a"/><use x="180" y="324" xlink:href="#a"/><use x="180" y="333" xlink:href="#a"/><use x="180" y="360" xlink:href="#a"/><use x="189" y="36" xlink:href="#a"/><use x="189" y="45" xlink:href="#a"/><use x="189" y="63" xlink:href="#a"/><use x="189" y="81" xlink:href="#a"/><use x="189" y="117" xlink:href="#a"/><use x="189" y="144" xlink:href="#a"/><use x="189" y="153" xlink:href="#a"/><use x="189" y="180" xlink:href="#a"/><use x="189" y="207" xlink:href="#a"/><use x="189" y="216" xlink:href="#a"/><use x="189" y="225" xlink:href="#a"/><use x="189" y="243" xlink:href="#a"/><use x="189" y="270" xlink:href="#a"/><use x="189" y="315" xlink:href="#a"/><use x="189" y="360" xlink:href="#a"/><use x="198" y="54" xlink:href="#a"/><use x="198" y="81" xlink:href="#a"/><use x="198" y="90" xlink:href="#a"/><use x="198" y="108" xlink:href="#a"/><use x="198" y="117" xlink:href="#a"/><use x="198" y="126" xlink:href="#a"/><use x="198" y="189" xlink:href="#a"/><use x="198" y="216" xlink:href="#a"/><use x="198" y="225" xlink:href="#a"/><use x="198" y="234" xlink:href="#a"/><use x="198" y="270" xlink:href="#a"/><use x="198" y="288" xlink:href="#a"/><use x="198" y="297" xlink:href="#a"/><use x="198" y="306" xlink:href="#a"/><use x="198" y="315" xlink:href="#a"/><use x="198" y="342" xlink:href="#a"/><use x="198" y="351" xlink:href="#a"/><use x="207" y="54" xlink:href="#a"/><use x="207" y="72" xlink:href="#a"/><use x="207" y="81" xlink:href="#a"/><use x="207" y="99" xlink:href="#a"/><use x="207" y="108" xlink:href="#a"/><use x="207" y="126" xlink:href="#a"/><use x="207" y="144" xlink:href="#a"/><use x="207" y="162" xlink:href="#a"/><use x="207" y="171" xlink:href="#a"/><use x="207" y="180" xlink:href="#a"/><use x="207" y="189" xlink:href="#a"/><use x="207" y="216" xlink:href="#a"/><use x="207" y="225" xlink:href="#a"/><use x="207" y="243" xlink:href="#a"/><use x="207" y="279" xlink:href="#a"/><use x="207" y="288" xlink:href="#a"/><use x="207" y="315" xlink:href="#a"/><use x="207" y="324" xlink:href="#a"/><use x="207" y="351" xlink:href="#a"/><use x="216" y="81" xlink:href="#a"/><use x="216" y="90" xlink:href="#a"/><use x="216" y="117" xlink:href="#a"/><use x="216" y="126" xlink:href="#a"/><use x="216" y="135" xlink:href="#a"/><use x="216" y="144" xlink:href="#a"/><use x="216" y="162" xlink:href="#a"/><use x="216" y="171" xlink:href="#a"/><use x="216" y="198" xlink:href="#a"/><use x="216" y="207" xlink:href="#a"/><use x="216" y="243" xlink:href="#a"/><use x="216" y="279" xlink:href="#a"/><use x="216" y="297" xlink:href="#a"/><use x="216" y="315" xlink:href="#a"/><use x="216" y="324" xlink:href="#a"/><use x="216" y="360" xlink:href="#a"/><use x="225" y="126" xlink:href="#a"/><use x="225" y="153" xlink:href="#a"/><use x="225" y="162" xlink:href="#a"/><use x="225" y="216" xlink:href="#a"/><use x="225" y="225" xlink:href="#a"/><use x="225" y="252" xlink:href="#a"/><use x="225" y="279" xlink:href="#a"/><use x="225" y="288" xlink:href="#a"/><use x="225" y="297" xlink:href="#a"/><use x="225" y="315" xlink:href="#a"/><use x="234" y="36" xlink:href="#a"/><use x="234" y="45" xlink:href="#a"/><use x="234" y="90" xlink:href="#a"/><use x="234" y="108" xlink:href="#a"/><use x="234" y="126" xlink:href="#a"/><use x="234" y="144" xlink:href="#a"/><use x="234" y="153" xlink:href="#a"/><use x="234" y="180" xlink:href="#a"/><use x="234" y="189" xlink:href="#a"/><use x="234" y="225" xlink:href="#a"/><use x="234" y="261" xlink:href="#a"/><use x="234" y="279" xlink:href="#a"/><use x="234" y="297" xlink:href="#a"/><use x="234" y="306" xlink:href="#a"/><use x="234" y="342" xlink:href="#a"/><use x="234" y="360" xlink:href="#a"/><use x="243" y="36" xlink:href="#a"/><use x="243" y="45" xlink:href="#a"/><use x="243" y="54" xlink:href="#a"/><use x="243" y="108" xlink:href="#a"/><use x="243" y="117" xlink:href="#a"/><use x="243" y="126" xlink:href="#a"/><use x="243" y="135" xlink:href="#a"/><use x="243" y="144" xlink:href="#a"/><use x="243" y="171" xlink:href="#a"/><use x="243" y="180" xlink:href="#a"/><use x="243" y="189" xlink:href="#a"/><use x="243" y="207" xlink:href="#a"/><use x="243" y="225" xlink:href="#a"/><use x="243" y="234" xlink:href="#a"/><use x="243" y="243" xlink:href="#a"/><use x="243" y="252" xlink:href="#a"/><use x="243" y="288" xlink:href="#a"/><use x="243" y="297" xlink:href="#a"/><use x="243" y="315" xlink:href="#a"/><use x="243" y="333" xlink:href="#a"/><use x="243" y="342" xlink:href="#a"/><use x="252" y="63" xlink:href="#a"/><use x="252" y="72" xlink:href="#a"/><use x="252" y="81" xlink:href="#a"/><use x="252" y="90" xlink:href="#a"/><use x="252" y="99" xlink:href="#a"/><use x="252" y="108" xlink:href="#a"/><use x="252" y="126" xlink:href="#a"/><use x="252" y="135" xlink:href="#a"/><use x="252" y="144" xlink:href="#a"/><use x="252" y="153" xlink:href="#a"/><use x="252" y="162" xlink:href="#a"/><use x="252" y="171" xlink:href="#a"/><use x="252" y="189" xlink:href="#a"/><use x="252" y="198" xlink:href="#a"/><use x="252" y="243" xlink:href="#a"/><use x="252" y="261" xlink:href="#a"/><use x="252" y="279" xlink:href="#a"/><use x="252" y="306" xlink:href="#a"/><use x="252" y="315" xlink:href="#a"/><use x="252" y="324" xlink:href="#a"/><use x="252" y="342" xlink:href="#a"/><use x="252" y="351" xlink:href="#a"/><use x="261" y="45" xlink:href="#a"/><use x="261" y="54" xlink:href="#a"/><use x="261" y="63" xlink:href="#a"/><use x="261" y="72" xlink:href="#a"/><use x="261" y="81" xlink:href="#a"/><use x="261" y="108" xlink:href="#a"/><use x="261" y="117" xlink:href="#a"/><use x="261" y="126" xlink:href="#a"/><use x="261" y="135" xlink:href="#a"/><use x="261" y="144" xlink:href="#a"/><use x="261" y="162" xlink:href="#a"/><use x="261" y="180" xlink:href="#a"/><use x="261" y="189" xlink:href="#a"/><use x="261" y="198" xlink:href="#a"/><use x="261" y="225" xlink:href="#a"/><use x="261" y="243" xlink:href="#a"/><use x="261" y="252" xlink:href="#a"/><use x="261" y="261" xlink:href="#a"/><use x="261" y="288" xlink:href="#a"/><use x="261" y="297" xlink:href="#a"/><use x="261" y="306" xlink:href="#a"/><use x="261" y="342" xlink:href="#a"/><use x="261" y="351" xlink:href="#a"/><use x="261" y="360" xlink:href="#a"/><use x="270" y="45" xlink:href="#a"/><use x="270" y="63" xlink:href="#a"/><use x="270" y="72" xlink:href="#a"/><use x="270" y="90" xlink:href="#a"/><use x="270" y="108" xlink:href="#a"/><use x="270" y="135" xlink:href="#a"/><use x="270" y="144" xlink:href="#a"/><use x="270" y="162" xlink:href="#a"/><use x="270" y="171" xlink:href="#a"/><use x="270" y="180" xlink:href="#a"/><use x="270" y="216" xlink:href="#a"/><use x="270" y="243" xlink:href="#a"/><use x="270" y="252" xlink:href="#a"/><use x="270" y="270" xlink:href="#a"/><use x="270" y="279" xlink:href="#a"/><use x="270" y="324" xlink:href="#a"/><use x="270" y="333" xlink:href="#a"/><use x="270" y="360" xlink:href="#a"/><use x="279" y="36" xlink:href="#a"/><use x="279" y="72" xlink:href="#a"/><use x="279" y="99" xlink:href="#a"/><use x="279" y="135" xlink:href="#a"/><use x="279" y="144" xlink:href="#a"/><use x="279" y="153" xlink:href="#a"/><use x="279" y="171" xlink:href="#a"/><use x="279" y="180" xlink:href="#a"/><use x="279" y="189" xlink:href="#a"/><use x="279" y="198" xlink:href="#a"/><use x="279" y="207" xlink:href="#a"/><use x="279" y="216" xlink:href="#a"/><use x="279" y="261" xlink:href="#a"/><use x="279" y="279" xlink:href="#a"/><use x="279" y="288" xlink:href="#a"/><use x="279" y="315" xlink:href="#a"/><use x="279" y="333" xlink:href="#a"/><use x="279" y="342" xlink:href="#a"/><use x="279" y="360" xlink:href="#a"/><use x="288" y="36" xlink:href="#a"/><use x="288" y="45" xlink:href="#a"/><use x="288" y="63" xlink:href="#a"/><use x="288" y="72" xlink:href="#a"/><use x="288" y="90" xlink:href="#a"/><use x="288" y="108" xlink:href="#a"/><use x="288" y="153" xlink:href="#a"/><use x="288" y="198" xlink:href="#a"/><use x="288" y="207" xlink:href="#a"/><use x="288" y="216" xlink:href="#a"/><use x="288" y="225" xlink:href="#a"/><use x="288" y="234" xlink:href="#a"/><use x="288" y="261" xlink:href="#a"/><use x="288" y="279" xlink:href="#a"/><use x="288" y="288" xlink:href="#a"/><use x="288" y="297" xlink:href="#a"/><use x="288" y="306" xlink:href="#a"/><use x="288" y="315" xlink:href="#a"/><use x="288" y="324" xlink:href="#a"/><use x="288" y="333" xlink:href="#a"/><use x="288" y="342" xlink:href="#a"/><use x="297" y="135" xlink:href="#a"/><use x="297" y="144" xlink:href="#a"/><use x="297" y="162" xlink:href="#a"/><use x="297" y="171" xlink:href="#a"/><use x="297" y="198" xlink:href="#a"/><use x="297" y="216" xlink:href="#a"/><use x="297" y="225" xlink:href="#a"/><use x="297" y="252" xlink:href="#a"/><use x="297" y="261" xlink:href="#a"/><use x="297" y="270" xlink:href="#a"/><use x="297" y="279" xlink:href="#a"/><use x="297" y="288" xlink:href="#a"/><use x="297" y="324" xlink:href="#a"/><use x="297" y="342" xlink:href="#a"/><use x="297" y="351" xlink:href="#a"/><use x="306" y="36" xlink:href="#a"/><use x="306" y="45" xlink:href="#a"/><use x="306" y="54" xlink:href="#a"/><use x="306" y="63" xlink:href="#a"/><use x="306" y="72" xlink:href="#a"/><use x="306" y="81" xlink:href="#a"/><use x="306" y="90" xlink:href="#a"/><use x="306" y="108" xlink:href="#a"/><use x="306" y="117" xlink:href="#a"/><use x="306" y="135" xlink:href="#a"/><use x="306" y="144" xlink:href="#a"/><use x="306" y="153" xlink:href="#a"/><use x="306" y="171" xlink:href="#a"/><use x="306" y="189" xlink:href="#a"/><use x="306" y="198" xlink:href="#a"/><use x="306" y="207" xlink:href="#a"/><use x="306" y="234" xlink:href="#a"/><use x="306" y="243" xlink:href="#a"/><use x="306" y="252" xlink:href="#a"/><use x="306" y="261" xlink:href="#a"/><use x="306" y="288" xlink:href="#a"/><use x="306" y="306" xlink:href="#a"/><use x="306" y="324" xlink:href="#a"/><use x="306" y="333" xlink:href="#a"/><use x="306" y="342" xlink:href="#a"/><use x="306" y="360" xlink:href="#a"/><use x="315" y="36" xlink:href="#a"/><use x="315" y="90" xlink:href="#a"/><use x="315" y="117" xlink:href="#a"/><use x="315" y="126" xlink:href="#a"/><use x="315" y="144" xlink:href="#a"/><use x="315" y="153" xlink:href="#a"/><use x="315" y="171" xlink:href="#a"/><use x="315" y="189" xlink:href="#a"/><use x="315" y="198" xlink:href="#a"/><use x="315" y="216" xlink:href="#a"/><use x="315" y="234" xlink:href="#a"/><use x="315" y="252" xlink:href="#a"/><use x="315" y="261" xlink:href="#a"/><use x="315" y="288" xlink:href="#a"/><use x="315" y="324" xlink:href="#a"/><use x="315" y="351" xlink:href="#a"/><use x="324" y="36" xlink:href="#a"/><use x="324" y="54" xlink:href="#a"/><use x="324" y="63" xlink:href="#a"/><use x="324" y="72" xlink:href="#a"/><use x="324" y="90" xlink:href="#a"/><use x="324" y="135" xlink:href="#a"/><use x="324" y="144" xlink:href="#a"/><use x="324" y="153" xlink:href="#a"/><use x="324" y="162" xlink:href="#a"/><use x="324" y="171" xlink:href="#a"/><use x="324" y="198" xlink:href="#a"/><use x="324" y="207" xlink:href="#a"/><use x="324" y="216" xlink:href="#a"/><use x="324" y="243" xlink:href="#a"/><use x="324" y="252" xlink:href="#a"/><use x="324" y="261" xlink:href="#a"/><use x="324" y="270" xlink:href="#a"/><use x="324" y="288" xlink:href="#a"/><use x="324" y="297" xlink:href="#a"/><use x="324" y="306" xlink:href="#a"/><use x="324" y="315" xlink:href="#a"/><use x="324" y="324" xlink:href="#a"/><use x="324" y="333" xlink:href="#a"/><use x="324" y="342" xlink:href="#a"/><use x="324" y="351" xlink:href="#a"/><use x="324" y="360" xlink:href="#a"/><use x="333" y="36" xlink:href="#a"/><use x="333" y="54" xlink:href="#a"/><use x="333" y="63" xlink:href="#a"/><use x="333" y="72" xlink:href="#a"/><use x="333" y="90" xlink:href="#a"/><use x="333" y="108" xlink:href="#a"/><use x="333" y="117" xlink:href="#a"/><use x="333" y="126" xlink:href="#a"/><use x="333" y="135" xlink:href="#a"/><use x="333" y="144" xlink:href="#a"/><use x="333" y="153" xlink:href="#a"/><use x="333" y="180" xlink:href="#a"/><use x="333" y="207" xlink:href="#a"/><use x="333" y="225" xlink:href="#a"/><use x="333" y="243" xlink:href="#a"/><use x="333" y="261" xlink:href="#a"/><use x="333" y="324" xlink:href="#a"/><use x="333" y="342" xlink:href="#a"/><use x="333" y="351" xlink:href="#a"/><use x="342" y="36" xlink:href="#a"/><use x="342" y="54" xlink:href="#a"/><use x="342" y="63" xlink:href="#a"/><use x="342" y="72" xlink:href="#a"/><use x="342" y="90" xlink:href="#a"/><use x="342" y="126" xlink:href="#a"/><use x="342" y="135" xlink:href="#a"/><use x="342" y="144" xlink:href="#a"/><use x="342" y="162" xlink:href="#a"/><use x="342" y="180" xlink:href="#a"/><use x="342" y="243" xlink:href="#a"/><use x="342" y="252" xlink:href="#a"/><use x="342" y="261" xlink:href="#a"/><use x="342" y="288" xlink:href="#a"/><use x="342" y="297" xlink:href="#a"/><use x="342" y="306" xlink:href="#a"/><use x="342" y="351" xlink:href="#a"/><use x="342" y="360" xlink:href="#a"/><use x="351" y="36" xlink:href="#a"/><use x="351" y="90" xlink:href="#a"/><use x="351" y="108" xlink:href="#a"/><use x="351" y="117" xlink:href="#a"/><use x="351" y="144" xlink:href="#a"/><use x="351" y="162" xlink:href="#a"/><use x="351" y="171" xlink:href="#a"/><use x="351" y="189" xlink:href="#a"/><use x="351" y="198" xlink:href="#a"/><use x="351" y="207" xlink:href="#a"/><use x="351" y="225" xlink:href="#a"/><use x="351" y="261" xlink:href="#a"/><use x="351" y="270" xlink:href="#a"/><use x="351" y="306" xlink:href="#a"/><use x="351" y="315" xlink:href="#a"/><use x="351" y="360" xlink:href="#a"/><use x="360" y="36" xlink:href="#a"/><use x="360" y="45" xlink:href="#a"/><use x="360" y="54" xlink:href="#a"/><use x="360" y="63" xlink:href="#a"/><use x="360" y="72" xlink:href="#a"/><use x="360" y="81" xlink:href="#a"/><use x="360" y="90" xlink:href="#a"/><use x="360" y="108" xlink:href="#a"/><use x="360" y="144" xlink:href="#a"/><use x="360" y="153" xlink:href="#a"/><use x="360" y="171" xlink:href="#a"/><use x="360" y="189" xlink:href="#a"/><use x="360" y="198" xlink:href="#a"/><use x="360" y="216" xlink:href="#a"/><use x="360" y="243" xlink:href="#a"/><use x="360" y="252" xlink:href="#a"/><use x="360" y="261" xlink:href="#a"/><use x="360" y="279" xlink:href="#a"/><use x="360" y="306" xlink:href="#a"/><use x="360" y="315" xlink:href="#a"/><use x="360" y="333" xlink:href="#a"/><use x="360" y="360" xlink:href="#a"/></svg>