<svg version="1.2" baseProfile="tiny" xmlns="http://www.w3.org/2000/svg" viewBox="0 0 200 166" overflow="scroll"><path fill="#FDA784" d="M41.95 50.221c-3.228.196-6.209-.239-9.024-1.223-3.382-1.183-6.457-3.129-8.188-6.343-1.645-3.056-2.49-6.43-.58-9.802.825-1.456 2.066-2.558 3.606-3.168 1.914-.758 3.87-1.617 5.99-1.366 1.604.19 3.198.583 4.754 1.033 1.16.336 1.777.15 1.993-1.05.26-1.453.359-2.936.62-4.39.608-3.38 2.035-6.403 5.453-7.525 2.108-.692 4.513-.526 6.622.766 2.886 1.77 4.198 4.452 4.904 7.646.264 1.194.453 2.401.65 3.596.492 2.962-.058 5.937-.356 8.869-.265 2.609-1.046 5.175-1.43 7.798-.108.735-.341 1.52-.596 2.261-.22.64-.688.971-1.3 1.118-2.555.616-5.102 1.21-7.75 1.393-1.857.128-3.69.589-5.368.387z"/><path fill="#4B241F" d="M195.548 19.62c-.563 2.013-1.714 3.751-2.646 5.587-1.725 3.398-3.5 6.771-5.298 10.13-1.029 1.92-2.615 3.457-3.826 5.232-1.394 2.044-3.031 3.867-4.522 5.817-.17.162-.33.344-.52.476-.306.213-.366.88-.819.69-.444-.188-.319-.743-.27-1.175.07-.32.197-.619.327-.917.882-2.066 1.197-4.22 1.013-6.454-.043-1.714-.027-3.428-.012-5.14.212-1.74-.708-3.151-1.354-4.642-.14-.747-1.2-1.065-.94-2 .78-.54 1.45-1.32 2.57-1.065.234.053.462-.111.656-.263 2.861-2.235 6.055-3.957 9.11-5.892 1.146-.726 2.406-1.169 3.754-1.195 1.01-.02 1.892-.206 2.677-.88.273-.235.847-.796.85.242l.008-.018c-.458.383-.432 1.016-.758 1.467z"/><path fill="#59321D" d="M80.022 6.031c2.603 1.145 5.212 2.278 7.676 3.704.8.463 1.763.536 2.493 1.131.39.821-.233.95-.774 1.104-.91.258-1.89.316-2.672.935-1.995.995-3.054 2.782-3.96 4.697-.578 1.515-.766 3.12-1.104 4.69a8.87 8.87 0 0 0 0 3.259c.114.515.11 1.045.196 1.564-.064.372-.173.68-.651.439-2.776-2.06-4.993-4.688-7.122-7.349-2.098-2.622-3.992-5.424-5.767-8.278-.84-1.351-2.057-2.533-2.359-4.2.426-.65.799-.293 1.16.069.6.6 1.106 1.278 1.615 1.954.27.358.56.766 1.074.625.871-.24 1.438.202 2.048.713 2.423 2.031 5.153 1.999 7.975 1.07a2.873 2.873 0 0 0 1.644-1.354c.629-1.13.44-1.99-.644-2.68-.576-.366-1.21-.647-1.745-1.075-.636-.508-.767-.972.206-1.231.26-.002.495.072.711.213z"/><path fill="#834D42" d="M63.775 2.974c-.636-.735-.437-1.54-.18-2.34.2-.628.636-.768 1.22-.515 4.153 1.8 8.483 3.13 12.688 4.788.215.085.393.263.589.397-.043.763.462 1.23.924 1.725.596.64.693 1.354.223 2.092-.454.712-1.113.802-1.904.6-2.3-.584-4.633-.946-7.017-.94-2.685.006-4.485-1.733-4.644-4.448-.03-.508.11-1.075-.378-1.457-.526-.411-1.039-.326-1.521.098z"/><path fill="#AE8544" d="M133.19 128.336c-.295 1.582-1.3 2.803-2.192 4.04-3.735 5.184-8.133 9.735-13.678 12.975-5.169 3.02-10.82 4.605-16.823 4.99-2.893.186-5.771.367-8.644-.072-1.81-.277-3.662-.395-5.38-1.126.544-.634 1.166-.125 1.81-.152-.373-.13-1.005-.006-.725-.71.54-.337 1.096-.162 1.637-.024 2.428.616 4.912.888 7.395 1.068 1.635.12 3.282-.181 4.907-.463.666-.137 1.34-.105 2.013-.101.619.042 1.223.007 1.772-.328.917-.48 1.973-.335 2.929-.652 2.41-.798 4.667-1.895 6.895-3.126 3.312-1.83 6.16-4.23 8.9-6.765a36.574 36.574 0 0 0 8.795-12.386c.175-.404.255-.988.955-.764.375.653.02 1.232-.165 1.84-.174.574-.358 1.15-.4 1.756z"/><path fill="#8F643E" d="M20.308 157.083c-1.812-1.898-3.62-3.8-5.436-5.693-3.477-3.626-6.784-7.413-9.787-11.43-1.795-2.4-3.223-5.087-4.68-7.721-.813-1.467-.193-3.107.063-4.612.426-2.512 1.13-4.977 1.704-7.465a47.682 47.682 0 0 1 1.96-6.347c.333-.535.324-1.206.68-1.732l-.01.01c.336-.12.232-.76.71-.66.327.07.294.417.293.693-.234.824-.582 1.611-.78 2.447a4.435 4.435 0 0 0-.567 2.295c-1 3.342-1.48 6.805-2.348 10.176-.276 1.073-.284 2.139-.294 3.218-.088.695.263 1.256.57 1.83.722 1.833 2.148 3.264 2.908 5.075 1.183 1.7 2.313 3.436 3.554 5.096.856 1.485 1.998 2.74 3.19 3.953.089.069.168.147.24.231.405.598.947 1.069 1.45 1.575 1.322 1.493 2.717 2.917 4.073 4.379.526.707 1.036 1.43 1.833 1.872.335.222.613.5.835.834.657 1.055 1.718 1.703 2.579 2.552.257.227.424.52.594.81.528.876 1.332 1.468 2.13 2.065a.806.806 0 0 1 .298.42c.045.798-.27.947-.904.494-.97-.694-1.803-1.55-2.673-2.357-.725-.673-1.425-1.373-2.185-2.008z"/><path fill="#73402B" d="M63.775 2.974c.188-.291-.147-1.087.424-.872.615.23 1.67-.025 1.785 1.066.046.437 0 .883.016 1.323.081 2.233 1.85 3.984 4.04 3.961a26.4 26.4 0 0 1 7.552 1.017c.55.157.964.08 1.292-.308.378-.447.535-.96.225-1.555-.289-.553-.786-.903-1.176-1.355-.325-.377-.592-.749.159-.947h-.006c.323.37 1.047.077 1.2.727-.486.114-.707.422-.183.67.545.257.977.666 1.525.928.748.358 1.65.762 1.565 1.903-.082 1.118-.528 2.012-1.518 2.572-1.79 1.013-3.733 1.118-5.705.82-1.422-.213-2.643-.88-3.654-1.92-.278-.285-.637-.655-1.038-.422-.95.555-1.34 0-1.811-.694-.493-.724-1.153-1.333-1.67-2.043-.283-.39-.525-.235-.819-.117-.292-.435-.852-.726-.74-1.378-.2-.518-.384-1.044-.697-1.511l-.001-.004c-.278-.465-.409-1.001-.714-1.452l-.051-.41z"/><path fill="#B36D31" d="M166.272 58.472c-1.254 1.509-1.27 3.416-1.6 5.198-.824 4.436-1.882 8.795-3.309 13.088-2.065 6.217-6.116 10.904-10.96 15.05-.138.117-.357.139-.538.205-.108-.719.706-.918.873-1.575-.493.084-.771.426-1.103.67-.388.286-.762.64-1.28.242.138-.921.974-1.224 1.58-1.677 3.435-2.568 5.88-5.957 8.074-9.564.195-.32.219-.682.291-1.034 1.114-2.864 2.3-5.697 3.022-8.704.213-.888.13-1.844.594-2.673.604-1.038.599-2.248.815-3.368.297-1.532.716-3.051.849-4.617.045-.533.232-1.024.77-1.279.63.472 1.286-.246 1.922.038z"/><path fill="#63392F" d="M169.19 23.492c2.324-2.11 4.893-3.882 7.545-5.545 3.48-2.182 7.035-4.221 10.802-5.874.804-.285.945.014.63.715-2.984 1.39-5.788 3.104-8.525 4.918-2.31 1.53-4.424 3.336-6.661 4.97-.227.165-.475.366-.413.685.076.387.432.43.747.496.079.016.167.009.237.04 2.336 1.066 4.363.422 6.228-1.123.912-.42 1.85-.737 2.853-.879 2.362-.333 3.993-1.928 5.663-3.407.875-.773 1.757-1.508 2.792-2.053.87-.385 1.791-.632 2.684-.957.981-.051 1.548-.645 2.02-1.442.296-.499.417-1.239 1.241-1.225.338 2.04-1.178 4.421-3.167 4.662-2.88.348-5.031 2.012-7.216 3.656-.906.682-1.852 1.27-2.916 1.674-1.503.571-2.953 1.199-4.2 2.296-.734.646-1.824.774-2.717 1.236-.568.294-1.045-.29-1.473-.622-.488-.38-.935-.63-1.496-.174-1.65-.24-3.299-.477-4.974-.257a.602.602 0 0 1-.666-.404c-.096-.253.045-.458.207-.645.235-.272.57-.438.776-.741z"/><path fill="#61342E" d="M174.008 25.39c-.02-.176-.198-.421.112-.48.408-.08.758.042 1.105.321.727.588 1.464 1.591 2.387.218 2.275-.264 3.593-2.415 5.81-2.887 1.748-.371 3.093-1.637 4.456-2.734 1.659-1.336 3.473-2.372 5.584-2.55 1.892-.161 2.54-1.442 3.154-2.846.218-.5.244-1.083.357-1.628-.3-.296-.236-.64-.128-.99.291-.952.866-1.86.077-2.888-.315-.41.235-.545.534-.694.416-.426 1.02-.443 1.528-.601.65-.202 1.167.28.976.928-.957 3.233-2.06 6.417-3.463 9.49-.027.058-.13.082-.199.122-.084-.374-.242-.491-.539-.16-.813.908-1.83 1.159-3.03 1.104a4.947 4.947 0 0 0-2.762.722c-3.347 2.041-6.817 3.895-9.89 6.361-.126.1-.292.308-.373.28-1.211-.434-2.004.62-3.027.829-.534.17-.751-.289-1.052-.55-.406-.356-.744-.8-1.321-.903a.992.992 0 0 1-.288-.164c-.073-.098-.072-.198-.008-.3z"/><path fill="#A37F4F" d="M134.409 22.2a.805.805 0 0 1 .224.042c.595.374 1.368.244 1.94.683 3.989 1.03 7.199 3.351 10.303 5.957 2.289 1.92 4.557 3.836 6.568 6.051.578.637 1.138.53 1.832-.081 3.043-2.682 6.019-5.446 9.288-7.86-.034.412.353.411.57.581.033.483-.326.704-.634.953-3.4 2.74-6.769 5.512-9.77 8.705-1.063 1.131-1.923 2.476-3.292 3.306-.48.371-.986 1.151-1.594.48-.523-.58.173-1.078.59-1.49 2.321-2.291 2.427-2.57.136-5.364-1.78-2.17-3.869-4.03-6.154-5.663-2.112-1.3-4.115-2.793-6.506-3.59-.342-.115-.636-.34-.902-.59-.904-.52-1.875-.865-2.87-1.159-.368-.108-.686-.377-.54-.796.137-.396.497-.312.81-.166z"/><path fill="#B28350" d="M21.025 79.214c.51-1.065 1.273-1.92 2.194-2.645.706-.555 1.223-.403 1.595.399.816 1.757 1.15 3.646 1.563 5.518.515 2.333 1.104 4.65 1.643 6.977.315 1.36.635 2.723.884 4.096.686 3.782 1.88 7.45 2.574 11.217.368 2 1.247 3.859 1.402 5.893-.5.018-.072.839-.67.772-.468-.269-.581-.75-.72-1.21-1.003-3.31-1.883-6.662-2.57-10.039-.712-3.505-1.678-6.95-2.306-10.474-.592-3.32-1.617-6.552-2.24-9.873-.078-.418-.144-.995-.611-1.105-.548-.129-.793.45-1.101.801-.344.39-.574.88-1.037 1.167-.334.158-.689.253-.92-.12-.337-.542.147-.93.32-1.374z"/><path fill="#713F1C" d="M75.187 145.949c-1.063.867-1.924 1.97-3.122 2.681-1.226.863-1.612.778-2.163-.633-.269-.687-.708-1.108-1.333-1.44-1.417-.757-1.892-2.103-2.14-3.574l1.524-1.418c1.205-1.034 1.907-.93 3.555.52.939.964 2.232 1.4 3.28 2.202.222.17.48.289.705.459.265.2.491.445.455.797-.049.48-.566.156-.76.406z"/><path fill="#996F3C" d="M51.502 86.5c2.531-1.202 5.054-1.059 7.605-.026 2.339.946 3.86 2.686 4.958 4.876.087.132.177.269.338.313 1.407.391 1.408.39 1.164 1.776.022 1.11.055 2.212.22 3.318.273 1.824-.032 3.637-.321 5.44-.204.338-.392.831-.851.694-.438-.13-.38-.656-.389-1.049-.026-1.205-.11-2.422.015-3.614.164-1.563-.528-2.976-.611-4.497-.039-.7-.83-1.246-1.028-1.994a3.742 3.742 0 0 1-.407-.436c-1.1-1.346-1.745-1.326-2.67.196-.537.885-1.028 1.8-1.585 2.675-.354.379-.21 1.366-.852 1.206-.692-.172-.304-1.01-.322-1.57-.003-.078.019-.156.03-.233.43-1.552 1.095-2.98 2.108-4.256.672-.847.554-1.172-.4-1.628-1.479-.705-2.955-.982-4.426.017-.41.146-.547.554-.816.837-.252.265-.512.705-.938.186a.827.827 0 0 1-.01-.506c.075-.362.596-.626.311-1.042-.145-.213-.435-.013-.65.075a.94.94 0 0 1-.325.072c-.513-.194-.612-.462-.148-.83z"/><path fill="#926739" d="M71.333 91.401c1.485-.656 2.306-1.729 2.722-3.366.783-3.078 1.895-6.097 4.048-8.5 1.427-1.594 1.311-3.15.533-4.833-.58-1.253-1.137-2.495-1.295-3.88-.319-.687-.552-1.385-.28-2.148a.299.299 0 0 1 .336-.056c.5.531.373 1.361.897 1.881.663 1.318 1.112 2.73 1.793 4.043.378.73.862 1.121 1.696 1.006.24-.008.48-.016.718-.057.355-.06.754-.151.953.258.189.39-.098.675-.333.95-1.801 1.106-3.27 2.527-4.387 4.346-1.392 2.269-2.553 4.643-3.132 7.233-.375 1.675-.978 3.005-2.653 3.7-.769.319-1.427.887-2.26 1.096-.273.043-.55.054-.822.02-.351-.043-.779-.075-.812-.518-.039-.52.376-.771.816-.837.5-.076 1.027.01 1.462-.338z"/><path fill="#845228" d="M133.19 128.336c-.577-.72 0-1.377.18-2.015.154-.545.347-1.059.285-1.632-.132-1.209.46-2.257.745-3.374.826-1.449 1.15-3.076 1.564-4.654 1.42-5.393 2.19-10.91 2.934-16.427.14-1.033.314-2.061.503-3.086.089-.475.21-.956.788-1.087.46.07.457.444.359.726-.243.697.412.407.61.608-1.002 1.077-.742 2.503-.968 3.77-.506 2.841-.74 5.732-1.267 8.568-.758 4.074-1.485 8.155-2.918 12.083-.532 1.457-1.182 2.865-1.676 4.334-.36.736-.895 1.38-1.136 2.179l-.003.007z"/><path fill="#936A42" d="M103.964 17.381c2.06.928 4.114 1.873 6.19 2.768.387.167.863.17 1.3.175.817.009 1.456-.135 1.528-1.22.12-1.827.354-1.956 2.063-1.307 1.486.566 3.017.763 4.588.812.67.022 1.082-.18 1.169-.89.051-.421-.119-1.041.385-1.17.54-.139.921.336 1.192.8.74.795.105 1.5-.196 2.183-.263.599-.892.68-1.449.55-1.143-.266-2.302-.105-3.445-.221a2.001 2.001 0 0 1-.384-.088c-.073-.026-.148-.055-.222-.083-1.967-.74-1.98-.74-1.93 1.329.017.685-.24.923-.927.86-1.356-.121-2.715-.166-3.973.512-.227.08-.463.117-.702.132-.728-.02-1.434.059-2.064.472a1.706 1.706 0 0 1-.298.138c-.66.06-1.24.339-1.8.674-.11.04-.224.063-.34.07-.74-.127-.754-.52-.314-.987.329-.35.808-.514 1.188-.808.574-.39 1.199-.669 1.866-.85.463-.513.367-.654-.631-.923-.782-.307-1.474-.768-2.15-1.257-.532-.572-1.208-.939-1.876-1.32a.538.538 0 0 1-.125-.319c.433-.827.905.03 1.357-.032z"/><path fill="#8E5F2D" d="M66.43 142.983c.884 1.284 1.025 3.152 2.94 3.636.34.086.595.49.73.907.529 1.623.542 1.619 1.965 1.104-1.883 2.15-4.188 3.837-6.306 5.727-1.24 1.105-2.55 2.131-3.834 3.186-.443.365-.913.652-1.494.26-.393-.34-.982-.71.095-.877.284-.044.518-.152.73-.332 1.426-.965 2.672-2.142 3.9-3.338.96-.788 1.733-1.77 2.697-2.557.769-.628.705-1.865-.191-2.623-1.272-1.076-2.559-2.207-4.437-1.938-.457-.2-.77-.507-.784-1.04.118-.573.526-.604.996-.544.369.047.76.257 1.088-.11.624-.501 1.024-1.295 1.904-1.46z"/><path fill="#9E7350" d="M81.226 27.554c.252-.066.483-.154.46-.482a.47.47 0 0 1 .315-.12c.74.367 1.154 1.089 1.722 1.638 1.514 1.46 3.24 2.604 5.046 3.643 1.319.759 1.418.699 2.592-.364 1.061-.96 2.072-2.005 3.436-2.57.639.079.671.435.397.904-.177.303-.498.497-.658.817-1.928 2.073-3.725 4.26-5.486 6.473-.987 1.24-1.542 2.804-2.816 3.84-.478.357-.732.926-1.21 1.283-.32.24-.709.54-1.043.186-.357-.376.184-.575.346-.841.08-.133.185-.254.286-.374 1.259-1.885 2.52-3.767 3.774-5.654.61-.92.506-1.633-.408-2.195-2.65-1.63-4.693-3.915-6.753-6.184z"/><path fill="#976F47" d="M64.525 144.443c-.246.472-.692.29-1.062.304-.417.016-.815.004-.88.554-.958-.043-1.407-.85-2.038-1.373-2.45-2.03-4.545-4.423-6.786-6.667-.337-.238-.553-.58-.788-.906-1.054-1.136-1.462-1.204-2.64-.34-1.643 1.205-3.408 2.244-4.865 3.71-.547.55-1.257 1.016-2.137.976-.284-.012-.56-.06-.784-.246-.26-.218-.426-.503-.325-.84.114-.383.444-.429.777-.34.47.123.858-.042 1.236-.285 2.122-1.794 4.3-3.507 6.682-4.956.636-.386 1.061-.358 1.58.121a121.195 121.195 0 0 1 6.808 6.82 18.925 18.925 0 0 0 3.74 3.128c.453.29.937.45 1.482.34z"/><path fill="#B67F3B" d="M51.502 86.5c-.2.344-.136.6.25.75.035.496-.371.694-.676.914-2.729 1.969-4 4.86-4.862 7.933-.756 2.691-1.417 5.425-1.473 8.255-.425 2.164.169 4.31.108 6.466-.102.679.128 1.429-.405 2.112-.49-.35-.47-.856-.624-1.273-.843-4.238-.671-8.464.228-12.665.65-3.039 1.559-6.011 3.17-8.688 1.012-1.681 2.336-3.123 4.284-3.804z"/><path fill="#DDB351" d="M21.025 79.214c-.068.296-.17.59-.198.89-.064.686.331.533.719.363.285.392 0 .678-.194.969-2.032 3.03-4.058 6.062-5.751 9.302-1.595 3.053-3.296 6.053-4.619 9.241-.13.315-.315.556-.67.62-.578-.294-.122-.91-.405-1.297 1.833-4.681 4.261-9.065 6.732-13.426 1.313-2.317 2.578-4.67 4.386-6.662z"/><path fill="#774945" d="M197.456 8.232c-.098.253-.704.438-.27.744 1.287.91.13 1.818.018 2.695-.047.357-.232.735-.23 1.133-.54.504-.822 1.18-1.183 1.8-.447.766-1.04 1.204-1.958 1.097-.364-.964.383-1.554.782-2.248.258-.448.7-.835.395-1.407-.311-.582-.898-.583-1.469-.62-1.628-.103-3.019.714-4.51 1.14-.334.096-.614.412-1.01.235.147-.448.146-.797-.484-.728 1.867-1.06 3.846-1.875 5.853-2.62 1.327-.494 2.616-1.132 4.066-1.221z"/><path fill="#AF8752" d="M61.383 156.816c-.164.325-.457.407-.79.431-.415.03-.415.038-.162.556-1.22-.496-2.03-1.518-2.919-2.397-1.47-1.453-2.88-2.966-4.4-4.373-1.583-1.468-2.263-1.447-4.023-.172-1.57 1.138-2.781 2.722-4.552 3.596-.412.21-.749.187-.932-.304-.057-.665.428-.989.855-1.349.856-.723 1.742-1.41 2.566-2.171 1.072-.623 2.016-1.434 3.111-2.041.825-.457 1.41-.344 2.075.168 2.582 1.99 4.877 4.294 7.143 6.62.613.628 1.321 1.003 2.028 1.436z"/><path fill="#D6BE70" d="M116.993 19.569c1.229.03 2.455-.058 3.682.2 1.23.26 1.944-.8 1.704-2.42.764.502 1.556.968 2.288 1.513 1.67 1.243 3.68 1.56 5.578 2.215 1.374.474 2.929.21 4.164 1.122-.216.114-.637-.081-.628.349.005.27.285.324.524.381 1.047.25 2.1.489 2.92 1.266-.508.396-.989.095-1.481-.047-2.732-.786-5.381-1.83-8.18-2.425-1.31-.28-2.55-.96-3.793-1.523-.469-.213-.894-.35-1.359-.039-.791.53-1.673.536-2.56.384-.717-.122-1.442-.112-2.158-.202-.405-.05-.96-.073-.7-.774z"/><path fill="#9B6F37" d="M59.313 130.238c-2.046-2.93-4.129-5.833-5.49-9.18-.349-.857-1.441-.553-2.102-.978-.597-.286-1.28-.215-1.887-.461l-.03-.016c.191-.713.795-.5 1.266-.547.743-.075 1.521.142 2.215-.294.297-.128.612-.165.93-.18.63.068 1.117-.284 1.63-.56a.974.974 0 0 1 .365-.048c.467.088.6.389.528.823-.177.49-.601.719-1.01.966-.6.295-.938.668-.393 1.31 1.2 1.988 1.974 4.203 3.295 6.128.408.594.867 1.153 1.24 1.772.128.218.233.443.274.695-.028.551-.18.926-.83.57z"/><path fill="#B57945" d="M84.613 41.587c.063.477-.548.64-.54 1.168 1.092-.094 1.24-1.281 2.032-1.657.386.661-.147 1.055-.465 1.479-1.219 1.623-2.848 2.821-4.368 4.128-.61.525-1.208 1.062-1.811 1.593-.289.253-.534.568.028.822.418.193 1.003.003 1.379.784-1.55.159-2.829.882-4.13 1.56-.315.01-.74.36-.855-.269.328-1.632 1.27-2.927 2.519-3.911 2-1.576 3.834-3.312 5.573-5.161.19-.201.425-.359.638-.536z"/><path fill="#9F7949" d="M32.388 111.433c.043-1.039.043-1.039.492-.764.729 3.618 2.274 6.99 3.173 10.558.602 2.388 1.266 4.76 1.902 7.14.154.585.506 1.232-.457 1.47-.81-.542-.878-1.477-1.201-2.279-.693-1.718-.874-3.568-1.347-5.344-.822-3.095-1.805-6.146-2.5-9.274-.109-.492-.38-.991-.062-1.507z"/><path fill="#9E6F32" d="M75.187 145.949c.672-.377.644-.67-.014-1.103-1.28-.843-2.718-1.45-3.85-2.52.204-.205.454-.243.726-.202 1.66.625 3.044 1.752 4.615 2.54 2.56 1.285 5.293 2.035 8.069 2.659.976.22 1.909.551 2.767 1.075.154.45.639.383 1.227.745h-2.255c-2.915-.13-5.566-1.245-8.214-2.302-1.01-.402-1.988-.793-3.07-.892z"/><path fill="#B78F4A" d="M72.02 142.34l-.697-.014c-.967-.95-2-1.603-3.371-.76.43-.853.065-1.45-.54-2.078-2.847-2.953-5.777-5.836-8.099-9.25.51.046.688-.213.632-.687.263-.15.444.01.628.163 2.867 3.57 5.685 7.18 9.05 10.315.502.468 1.01.91 1.597 1.276.371.231.929.388.8 1.034z"/><path fill="#C4A661" d="M37.53 129.743c.612-.314.358-.895.425-1.376.815 2.102 1.548 4.243 2.476 6.294.581 1.283.968 2.654 1.996 3.775.622.678 1.071.792 1.806.554-.196.445-.588.45-.995.478-.297.022-.803-.236-.795.352.005.4.33.602.749.59.118-.005.236.015.355.024.201.676-.366.694-.746.874-1.032.179-1.257-.686-1.682-1.296-1.385-2.883-2.51-5.871-3.538-8.897-.148-.435-.376-.904-.05-1.372z"/><path fill="#DB8441" d="M75.883 51.195c.233.325.51-.043.758.048.216.24.196.515.105.793-.98 2.996-.539 6.04-.285 9.072.1 1.197.612 2.146 1.862 2.565.385.13.885.3.702.921-.72.421-1.487.248-2.246.182-1.027-.085-1.097-1.002-1.451-1.673-.376-2.496-.972-4.976-.399-7.529.327-1.457.034-3.05.954-4.379z"/><path fill="#B4965F" d="M103.964 17.381c-.363.34-1.01-.646-1.249.27-.655.444-1.145-.033-1.639-.327-2.341-1.394-4.675-2.795-7.18-3.894-2.159-.947-4.317-1.478-6.611-.499-.264.113-.553.105-.768-.152.532-.799 1.425-.722 2.204-.967.537-.17 1.499.152 1.47-.946.62-.134 1.065.315 1.574.508 3.767 1.433 7.413 3.122 10.844 5.251.44.272.903.505 1.355.756z"/><path fill="#CBAE7C" d="M43.76 153.945c.033.514.445.453.777.512-.956 1.378-2.48 2.085-3.735 3.103-2.602 2.11-5.415 3.952-7.949 6.154-.106.093-.298.087-.45.127.039-.4-.152-.632-.53-.729.128-.96 1.172-.806 1.639-1.353 3.091-2.245 6.093-4.601 8.904-7.194.404-.302.74-.755 1.345-.62z"/><path fill="#9D7655" d="M31.963 163.108c.679-.076.487.373.44.733-.585.811-1.498 1.185-2.293 1.717-.47.315-.787.093-1.149-.245-2.474-2.31-4.997-4.569-7.426-6.924-.417-.403-1.27-.464-1.227-1.306.519-.032.748.397 1.065.68 1.294 1.152 2.581 2.313 3.875 3.465.43.382.685.343.645-.302.496-.105.707.277.95.575.328.402.685.77 1.06 1.13 1.052 1.007 2.168 1.457 3.504.514.16-.112.361-.17.556-.037z"/><path fill="#754C27" d="M166.272 58.472c-.374.01-.652.216-.917.447-.69.597-.729.067-.778-.447-.06-.737.504-1.072.995-1.35 1.052-.598 1.951-1.37 2.825-2.187 1.445-.885 2.841-1.846 4.296-2.718.37.061.855.022.59.655-1.89 1.807-4.079 3.24-6.13 4.844-.308.24-.488.627-.881.756z"/><path fill="#D2AE5A" d="M53.455 118.923c-.363.588-.96.392-1.486.456-.72.088-1.484-.239-2.164.224-2.842-.637-4.177-2.84-5.279-5.21-.39-.839-.828-1.734-.706-2.736l.691 1.15v-1.898c.696-.001.728.547.77 1.009.144 1.611.828 3.003 1.656 4.351.941 1.531 2.276 2.295 4.088 2.312.813.008 1.695-.283 2.43.342z"/><path fill="#6C3B26" d="M141.158 97.395c-.424-.058-.514.44-.842.589-.313-.668.002-1.215.117-1.777.04-.252.22-.374.43-.469.75-.187 1.28-.723 1.857-1.182.367-.33.702-.707 1.224-.797.531-.008.902-.355 1.31-.627.113-.053.23-.086.353-.105.62.033 1.286.028.857.978-1.631 1.345-3.623 2.126-5.306 3.39z"/><path fill="#816240" d="M165.04 27.535c-.273-.094-.521.373-.746.078-.067-.088.172-.408.27-.622 1.475-1.255 2.927-2.541 4.627-3.5.1.656-1.126.818-.658 1.428.191.248 1.036.022 1.58-.033 1.34-.138 2.62.155 3.895.504l.009.225c-.19.225-.449.277-.722.295-2.512-.555-4.836-.075-7.014 1.258-.372.228-.77.44-1.241.367z"/><path fill="#8C522B" d="M146.464 94.005c.065-1.02-.747-.616-1.225-.755.702-1.199 1.786-1.776 3.132-1.927.96.15 1.271-.853 1.997-1.132.282-.109.548-.467.822-.118.253.322-.066.577-.277.809-.348.379-.699.754-1.048 1.13-1.03.842-2.14 1.547-3.4 1.993z"/><path fill="#AA8456" d="M5.61 112.162c-.158-1.352-.573.365-.808-.068.733-2.265 1.52-4.51 2.499-6.684.3-.667.583-1.342.875-2.013.576-.233.706.114.75.575-.082.563-.284 1.089-.521 1.602-.374.466-.588.991-.572 1.6-.318 1.62-1.126 3.063-1.673 4.601-.08.222-.266.401-.55.387z"/><path fill="#9A7143" d="M173.283 52.872c-.034-.478-.403-.406-.711-.434-.14-.472.247-.624.524-.82 1.83-1.301 3.127-3.043 4.173-4.997.165-.183.342-.336.614-.22v.984c.63-.158.676-1.03 1.374-1-1.543 2.576-3.655 4.627-5.974 6.487z"/><path fill="#BEA274" d="M71.333 91.401c-.167.618-.69.393-1.08.433-.46.048-.998.155-.974.644.027.538.629.257.974.339.188.044.392.022.588.03-.053.67-.597.81-1.03.673-1.507-.479-3.028-.367-4.556-.29.309-.778.396-1.425-.773-1.403-.274.005-.425-.189-.417-.477.96.637 1.994-.182 3.019.197 1.394.516 2.836.078 4.249-.146z"/><path fill="#BE9160" d="M75.328 63.103c.46.463.632 1.187 1.316 1.445.513 1.312 1.383 2.562.713 4.08-.62.727.113 1.464-.016 2.194-.19-.151-.361-.31-.398-.572-.338-2.427-1.114-4.756-1.615-7.147z"/><path fill="#C4A05C" d="M8.712 104.124c.03-.397-.065-.7-.536-.727.362-1.456 1.079-2.762 1.732-4.095.74.27.269.813.28 1.247.296 1.047-.528 3.042-1.476 3.575z"/><path fill="#AE8544" d="M133.193 128.329c-.02-.935.544-1.565 1.136-2.18-.198.821-.557 1.558-1.136 2.18z"/><path fill="#D6BE70" d="M136.574 22.925c-.643-.24-1.473.051-1.941-.683.722.014 1.414.115 1.94.683z"/><path fill="#D2AE5A" d="M49.834 119.619c.673-.026 1.363-.121 1.887.462-.679.047-1.329-.02-1.887-.462z"/><path fill="#AA8456" d="M4.812 112.083c-.14.612.005 1.335-.68 1.732-.058-.689.147-1.275.68-1.732z"/><path fill="#834D42" d="M79.286 6.03c-.323-.369-.946-.243-1.2-.727.685.137 1.419.145 1.936.728h-.736z"/><path fill="#61342E" d="M195.548 19.62c-.032-.636.091-1.192.758-1.467-.029.605-.18 1.147-.758 1.467z"/><path fill="#834D42" d="M63.826 3.383c.55.331.74.839.714 1.452-.528-.342-.716-.85-.714-1.452zM64.541 4.839c.59.339.765.869.697 1.511-.407-.423-.677-.91-.697-1.511z"/><path fill="#FDDC5E" d="M177.883 46.4l-.463.245c-1.245 1.525-2.486 3.081-3.907 4.418-1.05.988-2.191 2.164-3.898 2.1-.6-.023-1.058.338-1.548.613-.464.26-.98.541-1.464.165-.54-.421-.313-1.021-.166-1.565.149-.55.479-1.016.725-1.522.163-.336.27-.718-.012-1.02-.335-.36-.662-.036-.976.11-.11.05-.228.105-.304.194-1.55 1.805-3.585 2.9-5.64 4.015-1.628.884-2.25 2.669-3.159 4.18-1.457 2.424-2.236 5.078-2.69 7.83-.319 1.928.77 2.777 2.573 2.005 1.327-.567 2.48-1.485 3.795-2.096.543-.252 1.09-.63 1.604.051.135.61-.003 1.194-.173 1.773-.51 2.351-.95 4.72-1.873 6.962-.602 1.464-1.18 2.938-1.768 4.407-1.368 1.949-3.17 3.51-4.717 5.295-2.345 2.706-5.51 3.068-8.743 3.299-.904.065-1.257-.574-.92-1.736.395-1.37.288-2.671-.057-4.038-.329-1.301-.98-2.174-2.267-2.556-.508-.285-.996-.588-1.04-1.256.284-.641.797-.4 1.24-.285.761.198 1.245-.054 1.192-.845-.125-1.848.441-3.557 1.038-5.388-1.092.488-1.772 1.603-3.035 1.351a.492.492 0 0 1-.212-.27c.235-1.263 1.137-2.137 1.825-3.136.461-.346.672-.82.7-1.388.022-.169.066-.331.133-.487.408-.932 1.052-1.777 1.033-2.862.006-.301.032-.6.11-.893.093-.293.18-.59.43-.798.822.242.509.989.632 1.512.314 1.33.333 1.367 1.478.716.353-.2.717-.388 1.112-.46 1.571-.288 2.564-1.31 2.917-2.745.868-3.53 3.091-6.45 4.26-9.842.497-1.445 1.704-2.433 2.934-3.291a43.637 43.637 0 0 0 3.615-2.822c2.233-1.935 4.803-3.35 7.47-4.577 2.366-1.09 5.348-4.029 4.713-8.455-.069-.477-.251-.976-.042-1.43.745-1.617.675-3.269.297-4.945.439-.437.687.027.953.232.393.305.708.712 1.194.896.309.278.653.526.833.92.78 1.461 1.309 3.015 1.709 4.617.185 1.848.042 3.696.003 5.544-.24.26-.258.587-.23.907.17 1.962-.446 3.786-.965 5.628l-.25.723z"/><path fill="#AF8D3F" d="M178.132 45.677c.23-2.063.95-4.065.775-6.181-.018-.226.212-.315.42-.354.166 2.282-.086 4.487-1.195 6.535z"/><path fill="#A37F3E" d="M179.324 33.598c-.13-.078-.364-.144-.373-.234-.168-1.582-.897-2.96-1.55-4.367.163-.149.32-.14.469.022.63 1.48 1.582 2.858 1.454 4.579z"/><path fill="#63392F" d="M177.87 29.02l-.47-.023-.723-.727c-.749-.591-1.27-1.43-2.118-1.92-.238-.137-.41-.386-.355-.708 1.27-.107 1.547 1.26 2.473 1.665l1.193 1.712z"/><path fill="#FEEE77" d="M86.517 12.779c.62.174 1.042-.33 1.568-.481 2.747-.785 5.082.417 7.4 1.513 2.19 1.035 4.282 2.275 6.318 3.597.269.174.574.292.912.242l.008.003c.686.33 1.302.775 1.932 1.195l2.179 1.211c.415.382 1.592.386.7 1.415-.704.083-1.26.528-1.9.77-2.363 1.367-4.599 2.926-6.835 4.485-.724.504-1.397 1.086-2.3 1.26-.502 0-.782-.262-.709-.75.108-.72-.318-.753-.85-.827-1.993-.275-3.98-.518-6.004-.492-2.257.03-4.009-1.273-5.78-2.453-.303-.201-.592-.546-.575-.89.062-1.276-.611-2.514-.172-3.8.065-.46-.073-.963.29-1.358.7-2.018 1.825-3.686 3.818-4.64z"/><path fill="#A48A46" d="M82.699 17.419l-.052 1.394a23.219 23.219 0 0 0-.53 6.86c.035.467.223.947-.13 1.378l-.3.02c-.427-.418-.15-.957-.245-1.432a12.834 12.834 0 0 1-.004-3.437c.263-1.43.524-2.863.793-4.293.048-.254.233-.402.468-.49z"/><path fill="#9E7350" d="M81.438 22.202l.004 3.437a6.138 6.138 0 0 1-.004-3.437z"/><path fill="#FDDC5E" d="M53.455 118.923c-.558-.007-1.124-.073-1.674-.01-3.087.35-4.778-1.41-5.972-3.917-.478-1.004-.854-2.047-.839-3.184.005-.389-.098-.708-.46-.903.044-1.793-.415-3.56-.266-5.36.04-.475-.016-.96.239-1.396.886-2.055 2.609-3.292 4.347-4.546 2.54-1.831 6.745-.317 7.89 1.985 1.15 2.31 2.138 4.677 2.634 7.222a8.32 8.32 0 0 0 1.493 3.389c.544.739 1.178 1.27 2.138 1.415 1.21.181 1.99.935 2.482 2.053.87 1.975 1.986 3.746 3.907 4.921 1.517.928 3.167 1.347 4.885 1.615 1.386.216 2.708.691 3.615 1.764 1.226 1.449 2.797 1.895 4.566 2.095 2.703.305 5.198 1.077 6.86 3.478.19.272.4.621.956.538-.123-.707-.227-1.422-.138-2.133.044-.35-.08-.874.566-.848.495.56.077 1.343.496 2.004.399-.352.295-.806.363-1.205.07-.407-.074-.927.527-1.078.424.374.29.887.342 1.355.033.303-.141.753.233.857.408.113.613-.316.783-.624.503-.913 1.227-1.575 2.147-2.054 5.103-2.658 11.412.73 12.033 6.475.1.922.161 1.852.51 2.72.424 1.051.709 1.053 1.455.234.63-.693.942-1.729 2.013-1.975.507.512.12.978-.127 1.396-1.192 2.01-2.54 3.895-4.473 5.286-.342.246-.784.416-.95.96.712.107 1.165-.28 1.583-.696.853-.85 1.779-1.625 2.591-2.518.312-.344.618-.785 1.21-.55-.02 1.136-.902 1.718-1.604 2.379-.557.524-1.129 1.018-1.694 1.929.79-.417 1.414-.51 1.961-.034.49.426.871.948 1.176 1.512.31.575.155 1.123-.345 1.5-.733.552-1.457 1.085-2.511.881-.862-.167-2.989 1.335-3.251 2.15-.094.293.171.424.27.629-.5.446-1.095.507-1.725.428-.258-1.037.618-1.567 1.054-2.278.64-1.044.658-1.583-.028-2.395-.35-.413-.787-.536-1.287-.53-.774.012-1.214-.51-1.812-.897-2.274-1.473-3.734-3.99-6.742-4.593-2.65-.532-5.21-1.63-7.768-2.59-1.112-.418-2.28-.466-3.414-.723-1.87-.425-3.171-1.535-4.2-3.022-1.786-2.579-5.064-3.536-7.977-2.271-.74.321-1.44.718-2.165 1.069-.818.395-1.563.33-2.208-.336-.672-.694-1.451-1.269-2.094-1.998-1.613-1.832-3.263-1.77-4.76.137-.151.194-.32.362-.578.4-1.766-1.823-2.711-4.148-3.868-6.343-.275-.524-.495-1.077-.74-1.617-.443-.683-.017-1.092.468-1.482l.96-.743c.404-.37.607-.938.97-1.072-.283.3-.95.023-1.426.382a1.269 1.269 0 0 0-.22.031c-.492.232-.995.437-1.486.668l-.92.064z"/><path fill="#FEE366" d="M105.422 148.634c-.292-.08-.702.14-.868-.223-.144-.314.218-.476.385-.682.556-.686 1.236-1.24 1.923-1.79.541-.432 1.131-.612 1.79-.376.373.133.65.096 1.007-.104 1.895-1.064 1.926-1.353.557-3.027-.85-1.04-1.608-.34-2.676.179.833-2.274 3.012-3.072 3.879-4.888-.318-.562.158-.897.39-1.28 1.456-2.405 2.222-5.046 2.687-7.789.075-.44.097-.884.53-1.152.761-.125.939-.645.907-1.32-.063-1.334.085-2.653.288-3.968.412-2.665 1.842-4.233 4.037-4.414 2.398-.2 4.785 1.448 5.504 3.808.52 1.71.581 3.487.74 5.249.035.385-.09.91.386 1.042.371.104.631-.303.854-.58 2.985-3.724 5.31-7.703 4.87-12.74-.103-1.172.27-2.314.243-3.488-.032-1.403-.5-2.5-1.827-3.142-.433-.21-.847-.465-1.278-.683-.959-.484-1.61-1.243-1.805-2.289-.21-1.127-.766-2.222-.425-3.42.472-.329.718.103 1.033.305.148.135.327.256.428.42 1.113 1.817 2.75 2.913 4.686 3.747 1.474.635 2.145 2.007 2.226 3.605.06 1.2.113 2.408-.152 3.598-.61 2.738-.85 5.525-1.114 8.31-.224 1.08-.503 2.143-.972 3.147-.85 1.028-1.167 2.334-1.801 3.482-1.549 2.803-3.319 5.432-5.489 7.777-2.579 2.786-5.427 5.283-8.598 7.374-3.586 2.365-7.242 4.617-11.657 5.12-.233.026-.458.126-.688.192z"/><path fill="#FDCF4C" d="M72.02 142.34c-1.587-1.263-3.215-2.483-4.569-4.003-2.357-2.646-4.69-5.316-6.859-8.123-.09-.116-.096-.298-.141-.45.299-.344.747-.456 1.109-.708 1.101-.767 1.896-.777 2.972.03.996.745 2.032 1.45 2.932 2.311 1.115 1.066 2.392 1.464 3.871 1.05 3.306-.928 6.196-.059 8.781 2.03 1.553 1.256 3.308 1.944 5.266 2.19 2.554.321 4.88 1.303 7.11 2.53 1.182.65 2.159 1.534 2.786 2.757.605 1.177 1.55 1.916 2.827 2.259.776.208 1.557.402 2.31.686 1.894.714 2.314 1.914 1.27 3.645-.106.177-.18.355-.141.566-2.372.637-4.776.73-7.195.371-2.286-.339-4.566-.72-6.849-1.083-2.592-.73-5.234-1.267-7.8-2.104-2.778-.906-5.18-2.52-7.68-3.955z"/><path fill="#FDDC5E" d="M101.544 149.11c-.288-.063-.887.142-.358-.535 1.342-1.714 1.022-2.733-1.036-3.424a17.867 17.867 0 0 0-1.5-.429c-1.722-.415-3.005-1.272-3.862-2.942-1.014-1.977-3.084-2.712-4.997-3.557-1.736-.768-3.57-1.173-5.435-1.43-1.564-.214-2.91-.863-4.112-1.844-2.675-2.181-5.595-3.188-9.058-2.139-1.446.439-2.734-.04-3.86-1.084-.937-.869-1.965-1.643-2.986-2.416-.89-.674-1.82-.856-2.674.082-.342.376-.766.395-1.216.373l-.505-.214c-.19-.121-.22-.313-.227-.515.625-1.265 1.303-2.4 3.038-2.187.893.11 1.672.401 2.21 1.074.634.79 1.496 1.335 2.119 2.109.768.956 1.613.943 2.526.337 1.636-1.085 3.406-1.447 5.365-1.354 2.11.1 3.663.933 4.726 2.764 1.18 2.034 3.1 3.034 5.333 3.254 1.76.173 3.307.89 4.934 1.413 1.865.6 3.69 1.352 5.59 1.798 1.933.455 3.232 1.68 4.454 3.06.362.408.628.824 1.239.798.303-.013.643.106.664.405.082 1.138.879 1.157 1.648 1.016 1.213-.222 1.508.768 1.945 1.443.37.571.093 1.252-.332 1.788-.571.72-1.139 1.442-1.48 2.309l-2.153.047z"/><path fill="#FEED78" d="M8.712 104.124a11.126 11.126 0 0 0 1.475-3.576c.939-1.103 1.247-2.526 1.907-3.773 2.33-4.4 4.465-8.907 7.378-12.98.76-1.06 1.386-2.216 2.074-3.328.52-.655 1.021-1.327 1.567-1.96.633-.733 1.086-.552 1.301.342.413 1.709.753 3.437 1.224 5.13 1 3.6 1.63 7.284 2.495 10.915.832 3.49 1.56 7.017 2.385 10.512.482 2.036.929 4.118 1.87 6.027 1.004 4.052 2.269 8.035 3.285 12.079.532 2.113 1.02 4.217 1.857 6.23.92 3.524 2.456 6.816 3.819 10.173-.15.733-.641.956-1.279.54a2.24 2.24 0 0 1-.993-1.603c-.472-3.518-2.063-6.675-3.17-9.987-.539-1.616-1.26-3.146-2.306-4.494-1.184-1.527-1.818-1.656-3.491-.682-1.268.737-2.519 1.443-4.059 1.327-1.9-.143-3.586-.902-5.148-1.905-.942-.604-1.467-1.595-1.642-2.721-.283-1.819-1.1-3.359-2.411-4.632-1.712-1.662-2.124-3.676-1.85-5.978.239-1.999.361-4.006.999-5.936.14-.423.177-.889.021-1.311-.393-1.066-.598-2.165-.738-3.288-.064-.51-.2-1.105-.87-1.14-.603-.03-.791.495-.935.955-1.942 6.189-4.646 12.102-6.641 18.268-1.36 4.205-2.694 8.43-3.19 12.863-.077.684.004 1.797-1.33 1.48-.427-.293-.569-.778-.81-1.197-.264-2.277.505-4.388 1.02-6.546.333-1.39.425-2.832.842-4.211.296-.982.523-1.984.781-2.978.31-.706.316-1.507.678-2.198.08-.853.37-1.636.783-2.38.793-1.637 1.471-3.318 1.927-5.083.286-.468.317-1.05.664-1.49.117-.507.192-1.028.51-1.464z"/><path fill="#FDDD5D" d="M31.963 163.108c-2.3 1.606-2.87 1.136-5.286-1.303-.272-.274-.422-.673-.784-.879a660.85 660.85 0 0 0-.25-.275c-.573-.868-1.514-1.356-2.186-2.122l-.5-.669c-.75-1.05-1.756-1.842-2.713-2.683l-.677-.686c-.644-.669-1.345-1.283-1.948-1.993-1.522-1.29-2.806-2.804-4.079-4.329-.345-.691-1.025-1.098-1.456-1.715l.006.012c-1.247-1.284-2.15-2.856-3.435-4.109-1.432-1.53-2.463-3.34-3.57-5.097 1.085-.316 1.227-.612.759-1.593-.104-.218-.21-.445-.373-.618-1.636-1.743-1.507-3.845-1.33-6.007.246-3.017.81-5.951 1.854-8.793.853-1.906 1.717-3.805 2.976-5.495.371-.5.41-1.121.41-1.735 0-.938.202-1.846.594-2.688.361-.774.77-.779 1.333-.172.862.93 1.106 1.972.525 3.1-.961 1.863-.625 3.571.469 5.233.74 1.122 1.22 2.353 1.49 3.666.294 1.42 1.147 2.212 2.572 2.522 1.867.406 3.55 1.304 5.17 2.274 1.867 1.12 2.188 2.938 1.975 4.95-.314 2.962.533 4.537 3.208 5.897 1.544.785 2.977 1.755 4.51 2.56a4.942 4.942 0 0 1 2.315 2.537c.311.766.802 1.4 1.467 1.878 1.108.798 2.235 1.557 3.167 2.583.629.693 1.386.694 2.157.112a13.38 13.38 0 0 0 1.521-1.371c.664-.683 1.305-.627 2.022-.073 1.014.784 1.877 1.65 2.01 3.01.081.835.528 1.4 1.269 1.757-.946 1.25-2.46 1.889-3.394 3.151l-1.185.721c-3.142 1.778-5.695 4.313-8.456 6.579-.21.172-.423.378-.494.67-.308.741-1.331.486-1.663 1.193z"/><path fill="#FCE065" d="M6.308 120.343c-.935 2.472-1.556 5.01-1.703 7.661-.063 1.156-.252 2.3-.253 3.468 0 1.062.279 1.939.95 2.765.475.583.83 1.276 1.164 1.956.24.489-.015.965-.351 1.32-.436.46-.678-.187-1.03-.253-.887-1.734-2.237-3.203-2.897-5.066-.135-.248-.183-.494.016-.734.514.13.888.17.993-.57a64.17 64.17 0 0 1 1.589-7.735c.903-3.33 1.946-6.604 3.112-9.845 1.693-4.712 3.736-9.297 5.175-14.102.08-.27.168-.536.264-.8.183-.506.528-.793 1.087-.776.616.018.948.348 1.068.94.549 2.712 1.204 5.352.224 8.19-.555 1.609-.531 3.468-.455 5.232.062 1.447.844 2.565 1.832 3.536 1.364 1.34 2.244 2.927 2.485 4.82.15 1.178.728 2.185 1.677 2.655 2.778 1.374 5.206 2.773 8.427.552 2.11-1.455 3.016-1.164 4.45.97.83 1.234 1.518 2.54 1.994 3.958.623 1.86 1.318 3.684 2.15 5.473.557 1.197.624 2.625.897 3.952.154.745.25 1.523.793 2.1.455.483.981.78 1.383-.095.512.355.473 1.378 1.437 1.186 1.262.326 2.384-.215 3.485-.656 1.605-.642 3.167-1.389 4.91-1.604.697-.086.963-.637 1.287-1.154.277-.442.32-1.002.718-1.377l.728.759c.218 1.464-.311 2.73-1.09 3.906-.23.347-.678.467-1.09.4-2.229-.36-4.185.604-6.184 1.292-1.445.496-2.857 1.078-4.35 1.44-.836.204-1.584.167-2.3-.329-.264-.182-.538-.368-.832-.489-1.345-.553-1.928-1.554-2-2.994-.113-2.313-.87-4.49-1.586-6.67-.381-1.162-.183-2.399-.441-3.584-.13-.595-.242-1.182-.556-1.708-.527-.884-1.213-1.05-1.827-.276-1.601 2.018-2.55 4.278-2 6.928.273 1.314-.38 2.173-1.736 2.007-1.483-.181-2.727-.957-3.77-1.997-.558-.555-.571-1.316-.361-2.048.926-3.226-.567-5.563-3.32-6.7-1.533-.633-2.8-1.823-4.443-2.358-.909-.296-1.354-1.256-1.511-2.201-.14-.834-.473-1.533-1.046-2.127-1.888-1.954-2.414-4.18-1.48-6.768.317-.875.168-1.815.075-2.742-.125-1.235-.054-2.482.094-3.694-.247-.134-.377 0-.425.134-.75 2.068-1.98 3.94-2.374 6.163-.324 1.836-1.247 3.473-2.088 5.12a12.29 12.29 0 0 0-.965 2.57z"/><path fill="#FDCF4B" d="M8.655 142.357c1.645.952 2.46 2.597 3.436 4.11-1.5-1.075-2.587-2.493-3.436-4.11zM20.244 155.177c1.294.5 2.169 1.424 2.712 2.683-1.041-.755-2.041-1.553-2.712-2.683zM23.457 158.53c.906.525 1.974.882 2.186 2.121-.856-.576-1.761-1.101-2.186-2.122zM17.62 152.498c.742.573 1.574 1.059 1.947 1.993-.922-.398-1.472-1.159-1.948-1.993z"/><path fill="#AA8456" d="M4.827 114.541c-.082.777-.213 1.539-.678 2.198.011-.799.043-1.591.678-2.198z"/><path fill="#FDCF4B" d="M12.084 146.454c.619.458 1.321.845 1.456 1.715-.539-.527-1.286-.876-1.456-1.715z"/><path fill="#C8A956" d="M2.204 131.46l-.016.733c-.414-.498-.761-1.024-.682-1.72.349.247.665.517.698.987z"/><path fill="#FDDB5D" d="M134.627 121.542c-.409-2.446.107-4.822.6-7.187.329-1.58.446-3.164.353-4.76-.094-1.6-.853-2.846-2.356-3.471-1.647-.685-3.226-1.385-4.03-3.15-.174-.38-.567-.663-.858-.99l.077-.15c.703-.813.203-1.54-.25-2.174-1.807-2.534-3.369-5.255-5.6-7.472-1.647-1.63-3.19-3.342-5.32-4.442-2.002-1.035-3.773-.42-5.605.296-.207.195-.403.4-.6.605-.42.409-.805.874-1.406 1.031-.714.187-1.014.68-1.06 1.378-.937 2.465-.596 5.038-.65 7.575-.024 1.076.012 2.152-.014 3.228-.022.341-.017.69-.2.998-.66.469-.822-.073-1.002-.515-.24-.592-.016-1.191.015-1.788.032-.615-.111-1.183-.815-1.267-.758-.091-1.097.455-1.17 1.103-.109.958.059 1.927-.006 2.89-.028.43.05.95-.443 1.162-.438.19-.754-.17-1.052-.427-.989-.85-2.122-1.156-3.368-.797-1.12.322-1.972-.044-2.698-.849-.647-.717-1.357-1.372-2.012-2.08-.92-.996-1.927-1.792-3.332-2.008-1.123-.173-1.684-1.11-2.107-2.003-.952-2.006-2.557-2.473-4.576-2.25-1.382.152-2.091-.483-2.003-1.867.064-1.01-.112-2.005-.054-3.009.08-1.39.573-1.93 1.9-2.233 2.685-.612 4.782.49 6.674 2.219.918.838.889.836 1.6-.128 1.365-1.848 2.01-3.953 2.352-6.192.09-.59-.468-1.051-.199-1.63 1.06-.2 1.707.293 1.458 1.3-.597 2.414-1.049 4.874-2.105 7.159-.69 1.492-1.238 3.05-2.357 4.314a1.713 1.713 0 0 0-.448 1.21c.552.096.655-.333.806-.608 2.062-3.752 3.722-7.655 4.447-11.91.114-.671.048-1.237-.37-1.814-.594-.824-.62-1.87-.93-2.807.61-.64 1.287-1.207 1.99-1.74 1.17-.887 2.394-1.206 3.795-.436 1.028.564 2.12.738 3.16-.053a.69.69 0 0 1 .541-.023c1.098 1.156 2.366 2 3.925 2.466 3.514 1.05 6.543-.332 7.931-3.708.864-2.101.805-2.203-1.443-2.21-2.804-.01-4.787-1.658-6.752-3.349-.329-.282-.527-.729-1.022-.8-1.307.032-2.61.137-3.915.053-.58-.037-1.223-.019-1.446-.761.326-.421.784-.36 1.205-.27 1.123.237 2.218.005 3.325-.11.69-.072 1.016-.424.971-1.091-.08-1.193.326-2.271.726-3.355.463-.526 1.301-.257 1.746-.824.884.603 1.853 1.007 2.876 1.324a2.724 2.724 0 0 1 1.422 1.077c1.678 2.456 4.138 4.126 6.208 6.186 1.228 1.222 2.61 2.255 4.093 3.154.481.292.902.695 1.224 1.151.677.962 1.528 1.604 2.695 1.875.889.205 1.2.857 1.06 1.748-.042.27-.11.603.21.75.31.142.532-.12.722-.31.64-.636 1.441-1.02 2.22-1.432.58-.308 1.192-.502 1.781.016-.104.559-.613.595-1.005.728-2.709.918-5.063 5.075-3.453 8.282.747 1.487 2.043 2.436 3.404 3.12 1.69.85 3.58 1.272 5.433.238 2.85-1.59 4.351-3.684 3.892-7.298-.098-.773-.612-1.384-1.047-2.012-.242-.35-.65-.634-.51-1.155 1.962.638 2.803 1.924 2.902 4.445.033.848-.035 1.67-.317 2.491-.404 1.177-.18 1.268 1.008 1.326 1.366.067 2.613-.389 3.907-.601 2.437-.4 3.871-2.311 5.52-3.917 1.25-1.217 2.142-2.779 3.644-3.742-.314 1.587-1.432 2.726-2.258 4.022-2.064 3.236-4.873 5.75-7.91 8.036-1.108.538-2.192 1.115-3.132 1.927l.007.001c-.375.315-.843.467-1.254.72-.486.084-.747.52-1.147.738-.683.368-1.238.948-1.994 1.195l-.418.303c-.607.037-.646.514-.711.947-.663 4.398-1.262 8.808-1.996 13.194a64.472 64.472 0 0 1-2.843 10.964c-.034.095-.169.154-.256.23z"/><path fill="#FDD554" d="M162.18 67.896l-.006-1.925c-.024-.032-.064-.062-.07-.097-.264-1.56-.262-1.557-1.805-.793-.793.393-1.557.853-2.399 1.137-1.225.413-1.972-.08-2.063-1.367-.233-3.292 1.175-6.05 3.034-8.57 1.008-1.366 2.913-1.325 4.32-.199 1.419 1.136 1.497 1.138 3.014.139.437-.289.85-.61 1.271-.92.313-.23.639-.55 1.061-.17-.775.995-1.882 1.554-2.887 2.255-.408.284-.86.583-1.072 1.086-.607.347-.612.95-.72 1.547-.451 2.501-.945 4.995-1.435 7.49-.027.14-.16.259-.243.387z"/><path fill="#784944" d="M188.02 12.801c1.872-1.019 3.809-1.775 6-1.7.7.024 1.156.342 1.42.908.243.521.034.987-.382 1.398-.638.632-.986 1.439-1.225 2.294l-2.656.968c-.576-.315-.739-.878-.875-1.458-.011-.577.836-1.088.286-1.65-.567-.58-1.387-.422-2.041-.12-3.085 1.427-6.226 2.782-8.705 5.214-1.03 1.011-1.075 1.575-.383 2.596.17.558.535 1.075.356 1.705-1.642 1.553-3.45 2.42-5.718 1.378-.144-.066-.304-.15-.454-.144-.687.027-1.45-.091-1.583-.785-.116-.61.642-.906 1.121-1.249 2.24-1.603 4.306-3.445 6.65-4.906 1.855-1.155 3.686-2.358 5.614-3.375.804-.424 1.545-1.143 2.576-1.074z"/><path fill="#8A4432" d="M179.815 22.956c-.27-.53-.577-1.051-.479-1.687 1.077-.659 2.312-.901 3.491-1.264a9.534 9.534 0 0 0 4.07-2.468c1-1.008 2.091-1.967 3.553-2.308l.727 1.44c-1.88 1.015-3.247 2.676-4.94 3.936-1 .744-2.043 1.306-3.197 1.516-1.106.202-2.144.585-3.225.835z"/><path fill="#C8AC54" d="M174.204 25.642c.801.898 2.01 1.413 2.473 2.628-.92-.108-1.166-1.125-1.936-1.436-.677-.175-1.356-.349-1.45-1.217l.726-.002c.06.03.122.038.187.027z"/><path fill="#FEEE78" d="M173.29 25.617c.338.58 1.074.684 1.45 1.217.687 1.493.728 2.986.067 4.508-.237.545-.277 1.095-.144 1.742.772 3.74-1.735 7.704-5.268 9.162-2.528 1.042-4.946 2.45-7.005 4.322a32.37 32.37 0 0 1-3.587 2.818c-1.568 1.067-2.78 2.42-3.359 4.26-.4 1.268-.927 2.457-1.676 3.572-.994 1.482-1.386 3.233-1.957 4.9-.56 1.637-1.416 2.959-3.33 3.232-.685.098-1.256.523-1.762.985-.44.402-.605.312-.816-.233-.352-.908-.273-1.89-.583-2.795-.506-.715-1.313-.634-2.04-.77a.634.634 0 0 1-.258-.222.358.358 0 0 1 .102-.308c.168-.114.364-.153.557-.205 1.392-.376 1.493-.668.64-1.82a.337.337 0 0 1-.048-.334c.849-.442.792-1.12.48-1.862-1.684-3.25-6.143-2.756-8.364-1.35-.948.6-1.817 1.3-2.56 2.15-1.576 1.501-2.54 3.397-3.424 5.343-.789 1.809-1.571 3.618-1.146 5.67.083.215.16.432.178.664-.058 1.381.9 2.097 1.85 2.818 2.135 1.81 4.51 2.269 7.147 1.286.261-.098.538-.15.814-.198.948.113 1.212-.893 1.918-1.177 1.342-.072 2.122-1.166 3.234-1.786.29.608.047 1.121-.158 1.67-.505 1.352-.76 2.741-.692 4.206.06 1.298-.361 1.559-1.576 1.216-.343-.097-.724-.479-1.065.025-1.947-.245-3.869-.635-5.797-.992-1.547-.137-2.627.772-3.716 1.66-.356.29-.66.82-1.207.498-.5-.295-.41-.785-.249-1.29.252-.79-.138-1.212-.91-1.36-1.113-.211-2-.717-2.608-1.743a3.568 3.568 0 0 0-1.28-1.259c-1.67-.918-3.16-2.095-4.466-3.427-1.96-1.999-4.391-3.528-5.918-5.963-.515-.822-1.392-1.207-2.323-1.359-.8-.13-1.397-.474-1.757-1.205-.525.468-.996-.023-1.48-.107-.188.25-.002.553-.167.784-.07 1.45-.725 2.816-.565 4.312.051.48-.5.482-.906.557-1.62.302-3.235.25-4.854.014-.768.314-1.181-.264-1.637-.679-.645-.587-1.085-1.359-1.744-1.953.251 1.201.914 2.212 1.957 2.753 1.606.832 2.058 2.12 2 3.765-.035.96.417 1.772.824 2.604.312.639.768 1.23.79 1.987.023.429-.12.703-.608.682-.983-.043-1.959.137-2.892-.505-1.036-.713-2.22-.421-3.306.404-.71.538-1.19 1.404-2.163 1.58-.613.202-.69-.283-.728-.65-.084-.808-.618-1.046-1.27-1.372-1.506-.753-3.242-.397-4.733-1.117-1.835-.355-3.432-1.248-5.02-2.18-1.483-.871-2.362-2.193-2.683-3.82-.31-1.569-1.254-2.238-2.724-2.4-.4-.044-.8-.08-1.153-.301-.348-.219-.717-.475-.59-.94.131-.483.517-.688 1.027-.606.81.13 1.595.08 2.335-.31.167-.073.342-.117.522-.142.628-.041 1.252-.094 1.677-.658.583-.66 1.355-1.102 1.88-1.854 1.779-2.55 1.825-5.366 1.144-8.19-.39-1.613-1.734-2.677-3.217-3.408-.959-.473-1.966-.877-3.08-.826-1.008.02-.726-.533-.34-.93.668-.685 1.418-1.288 2.144-1.915 1.6-1.382 3.276-2.683 4.559-4.398.225-.302.416-.585.427-.966 1.073-.975 1.646-2.312 2.498-3.445 1.763-2.344 3.604-4.626 5.67-6.714 1.662-1.813 3.676-3.201 5.607-4.692 1.518-1.172 3.345-1.718 5.02-2.57l.002-.001c.617-.323 1.291-.488 1.946-.709l-.002.002c.645-.504 1.497-.372 2.195-.714l.676-.052a12.731 12.731 0 0 1 3.056-.565c.93-.053 1.666.226 1.863 1.27-.316.417-.79.31-1.217.377-3.62.566-7.194 1.398-10.634 2.61-2.034.717-3.79 2.114-4.73 4.241-1.063 2.403-.465 4.106 1.587 5.737 1.57 1.249 3.042 2.358 5.182 2.417.853.024 1.728.604 2.58.961.95.399 1.247 1.22 1.182 2.173-.066.962-.208 1.918-.348 2.872-.29 1.982.29 3.004 2.023 4.005 1.599.923 3.133 1.986 4.617 3.066 4.097 2.98 8.131 2.727 12.096.01 3.5-2.4 7.416-3.832 11.296-5.38 1.16-.463 2.278-1.01 3.403-1.55 1.772-.854 2.785-2.313 2.897-4.158.166-2.742-.317-5.383-2.515-7.378-.937-.85-2.145-1.136-3.3-1.404-2.106-.49-3.378-1.628-4.185-3.694-1.521-3.896-4.29-5.21-8.582-4.734-2.904.322-5.839.451-8.77.246-.494-.035-.952.077-1.423.193-.399.1-.892.33-1.038-.36.435-.66.125-1.349.01-1.994-.316-1.784-.122-2.02 1.645-1.723.194.033.404-.009.576.126l.006.002c.028.21.1.426.329.444 1.316.105 2.634.188 3.952.278.04.002.093.011.118-.01 1.976-1.602 3.551.152 5.164.762 1.154.436 2.362.636 3.515.98 2.202.659 4.363 1.434 6.555 2.115.188.058.399.04.599.057 2.18.928 4.302 1.965 6.238 3.349.354.253.716.496 1.074.743.223.236.337.566.559.782 1.94 1.883 2.387 4.281 2.433 6.834.017.925.596 1.653.938 2.463.25.593.5 1.187.76 1.776.696 1.568.901 1.595 2.09.25 3.326-3.294 6.347-6.897 10.127-9.732 1.262-.947 2.571-1.885 3.596-3.125 1.959-1.08 3.841-2.345 6.248-2.196.682.042 1.334.193 2.002.278z"/><path fill="#FBDA5D" d="M151.316 40.392c-.2.673-.596 1.142-1.34 1.165-.805.024-.746-.704-.962-1.181-.281-.62-.455-1.31-.835-1.86-1.016-1.47-1.152-3.183-1.165-4.823-.013-1.629-.81-2.717-1.74-3.82-.398-.474-.769-.927-.737-1.586.897.163 1.372.944 1.984 1.47 2.072 1.783 4.092 3.634 5.605 5.958.61.94.58 1.874-.208 2.68-.527.54-1.068 1.068-1.596 1.607-.246.25-.665.54-.383.893.377.47.682-.013.98-.247.123-.097.264-.171.397-.256z"/><path fill="#FEED76" d="M127.622 101.494c.095 1.24.411 2.44.696 3.644.199.837.698 1.432 1.478 1.795.182.085.353.2.54.268 2.333.84 3.235 2.58 2.809 4.908-.38 2.072-.074 4.155-.407 6.23-.395 2.461-1.494 4.554-2.818 6.57-.68 1.034-1.462 2.005-2.243 2.967-.255.313-.542.839-1.065.577-.431-.216-.425-.724-.446-1.176-.1-2.078-.207-4.153-.909-6.147-.884-2.514-4.75-3.896-6.925-2.395-.844.582-1.321 1.517-1.568 2.504-.451 1.798-.575 3.635-.504 5.487.033.886-.244 1.367-1.213.869-.559-.618-.165-1.44-.457-2.115a5.472 5.472 0 0 1-.105-1.147c.036-.653-.004-1.29-.397-1.851-.359-1.706-1.743-2.763-2.63-4.134-.303-.632-.82-.985-1.49-1.138-1.315-.476-2.517-1.178-3.866-1.625-4.935-1.632-10.34.857-13.168 4.706-.265.361-.42.772-.565 1.191-.13.372-.225.793-.73.852-1.474-1.236-1.514-1.494-.453-3.068.203-.3.419-.592.576-.92.675-1.41.85-2.676-1.358-2.851-1.03-.082-1.87-.726-2.695-1.296-.78-.54-1.395-1.348-2.51-1.249-.267.024-.534-.26-.607-.531-.519-1.918-2.257-2.62-3.714-3.403-1.765-.948-2.883-2.263-3.565-4.05-.3-.784-.74-1.32-1.54-1.723-1.007-.508-1.648-1.403-1.44-2.668a3.9 3.9 0 0 0 0-1.324c-.13-.72.081-1.28.73-1.628.5-.27.645-.658.568-1.201-.163-1.145-.085-2.336-.78-3.364-.244-.362-.137-.773.07-1.23-1.19.58-2.368 1.02-3.396 1.772-.876.64-1.835.788-2.85.326-.626-.286-1.341-.416-1.803.114-.523.6-.89 1.436-.523 2.231.523 1.13.426 2.181-.037 3.261-.316.736-.232 1.496-.178 2.261.046.65-.049 1.228-.935 1.124-.148-.25-.073-.485.047-.716.375-2.854.355-5.7-.15-8.54-.024-.13.102-.286.159-.43 1.22-.75 2.492-.486 3.764-.188.633.149 1.288.55 1.822-.196.932-.53 1.84-1.11 2.804-1.576 1.043-.505 1.293-1.47 1.505-2.424.866-3.889 2.56-7.365 5.138-10.394.703-.824 1.638-1.4 2.621-1.87 1.19-.871 2.532-1.123 3.981-1.066 1.323.052 2.649.015 3.973.012.861-.002 1.667.207 2.442.564.256.118.634.21.691.447.298 1.222 1.306 2.072 1.656 3.257-.572 1.707-1.539 3.238-2.14 4.948-.552 1.57-1.606 1.836-3.353 1.135-3.002-1.204-5.887-1.086-8.65.673-.582.37-1.11.803-1.464 1.41-.565.973-.716 1.962-.072 2.963.684 1.065 1.08 2.246 1.374 3.462.279 1.156.895 1.9 2.104 2.22 1.43.38 1.89 1.063 1.95 2.524.025.603-.032 1.21.035 1.81.115 1.026.505 1.253 1.462.849.774-.328 1.488-.774 2.367-.853 2.35-.212 4.174.695 5.507 2.578.816 1.154 1.569 2.327 2.86 3.04.589.325.83.972 1.003 1.602.4 1.461 1.181 2.453 2.595 3.248 1.287.724 2.514 1.081 3.935 1.22 2.838.278 5.466 1.285 7.983 2.596 3.734 1.946 7.333-1.11 7.599-4.675.268-3.58-.573-6.783-3.35-9.294-.992-.895-1.66-2.066-2.423-3.152-.745-1.06-1.615-1.894-3.08-1.712-.748.092-1.102-.413-1.2-1.079-.123-.838-.204-1.714.028-2.52.4-1.385.767-2.787 1.315-4.127 2.38-1.47 5.322-1.085 7.606 1.11.948.912 1.912 1.819 2.791 2.803 1.68 1.799 2.94 3.914 4.396 5.88.34.459.568.97.615 1.55-.094.514.56.94.177 1.488z"/><path fill="#FEEE78" d="M65.29 102.945c.303-.198.737-.42.611-.803-.447-1.368.052-2.588.475-3.829.15-.442.201-.92-.082-1.275-.65-.814-.4-1.564-.102-2.43.375-1.088 1.291-1.659 2.302-1.091 1.152.647 2.18.442 3.102-.308 1.172-.953 2.637-1.236 3.972-1.958-.524.796-.702 1.32-.086 2.3.617.983.447 2.463.612 3.725.024.189-.135.299-.292.331-1.284.264-1.27 1.112-1.136 2.178.125.988-.324 2.084.718 2.837.094.068.148.251.235.262 1.734.211 1.874 1.779 2.42 2.934.599 1.27 1.462 2.133 2.733 2.73 1.006.473 2.118.999 2.796 1.82 1.02 1.234 2.007 2.28 3.512 3.017 1.336.653 2.422 1.778 4.043 1.907 1.183.094 1.685.89 1.37 2.03-.202.733-.507 1.421-.976 2.05-.59.79-1.513 1.649.033 2.452.08.041.047.302.066.46.216.227.233.506.188.788-.189 1.185-.57 2.331-.701 3.53-.027.244-.212.424-.457.514-.464.83-.23 1.704-.144 2.565.031.31.499.64-.063.901-.464.216-.724-.09-1.024-.38-.719-.69-1.12-1.642-2.016-2.203-1.964-1.227-4.15-1.602-6.383-1.851-.9-.1-1.776-.295-2.367-1.023-1.461-1.8-3.414-2.515-5.633-2.86-3.39-.527-5.932-2.32-7.343-5.505-.72-1.624-1.544-2.93-3.594-3.037-.936-.049-1.34-1.103-1.82-1.8-.536-.778-.97-1.656-1.13-2.635-.429-2.595-1.512-4.958-2.549-7.35-1.011-2.334-5.432-3.991-7.969-1.823-1.37 1.17-2.92 2.127-3.71 3.848-.05.105-.275.128-.418.19.119-4.198 1.198-8.19 2.841-12.007.892-2.073 2.545-3.63 4.428-4.895l-.006.001c.263-.194.576-.324.832-.08.366.35.028.696-.101 1.034l-.044.433c-.347 1.472-.955 2.895-.854 4.516.552-2.03.941-4.065 2.368-5.661 1.745-1.442 3.474-.657 5.141.12.652.304 1.126.809.29 1.648-1.164 1.17-1.832 2.685-2.312 4.266-.027.03-.073.055-.079.089-.115.641-.605 1.658.052 1.828.843.218.303-1.023.753-1.435.653-1.09 1.092-2.317 1.936-3.282 1.06-1.212 1.568-1.155 2.511.156.117.162.237.322.355.483 2.445 4.837 1.906 9.896 1.1 15.247.326-.547.438-.924.543-1.303.118-.426.293-.832.423-1.254.128-.415.183-.876.63-1.112z"/><path fill="#D0B458" d="M65.29 102.945c-.288 1.356-.772 2.65-1.236 3.953-.084.236-.148.536-.412.517-.406-.03-.274-.412-.298-.67-.121-1.301.458-2.497.564-3.782.264-3.203.36-6.371-.627-9.477-.226-.707-.869-1.279-.686-2.12.69.675 1.15 1.546 1.415 2.411.722 2.353.56 4.81.555 7.238v1.775c.286-.248.484-.418.681-.59l.044.745z"/><path fill="#B67F3B" d="M53.947 87.494c-.745 1.456-1.3 2.984-1.805 4.54-.181.56-.092 1.113-.207 1.657a.592.592 0 0 1-.261.362c-.173.092-.281-.071-.356-.215-.408-.785.38-4.456 1.115-5.199.52.364.55-.204.727-.414.236-.279.265-.76.787-.731z"/><path fill="#C8AB55" d="M57.792 94.01c-.034.657.155 1.388-.584 1.813-.185.107-.455.12-.518-.086-.24-.787-.261-1.56.376-2.21.148.558-.301 1.13.067 1.775.286-.446.176-1.038.66-1.292z"/><path fill="#B67F3B" d="M52.477 88.206c.083-.569.193-1.158-.731-.954.285-.591.914-.72 1.238-.355.44.498-.073.964-.507 1.309z"/><path fill="#FDDF64" d="M80.495 64.524c-.543.844-1.386.472-2.083.423-.521-.037-1.074-.167-1.148.423-.063.504.532.777.994.81.644.044 1.27.11 1.872.347.751.295 1.413.806 1.503 1.592.36 3.112 2.494 4.507 5.064 5.636.823.361 1.659.62 2.497.904-.567.53-1.277.356-1.93.351a18.459 18.459 0 0 0-5.597.843c-.866.12-1.343-.203-1.748-1.047-.668-1.395-1.304-2.797-1.858-4.239-.34-.608-.354-1.336-.705-1.94v.002c.16-1.43-.745-2.674-.712-4.082l2.402-.043c.489-.387.972-.379 1.45.02z"/><path fill="#AF853C" d="M81.667 75.853c1.153-.912 2.588-.929 3.93-1.127 1.177-.173 2.397-.056 3.597-.067 1.63.642 3.448.378 5.087 1.148.749.352 1.25.58 1.198 1.462-.02.343-.086.755.448.813.433.477.872.943.75 1.68-.032.185-.003.49.114.57 1.51 1.02.791 2.427.517 3.62-.91 3.971-2.469 7.706-4.515 11.233-.219.377-.411.887-.974.543-.538-.328-.386-.702-.063-1.198 1.346-2.071 2.612-4.2 3.349-6.576.557-1.798 1.023-3.625 1.491-5.449.23-.89-.296-1.252-1.1-1.34-.38-.372-.219-.77-.058-1.168-.021-.547-.157-1.057-.74-1.229-.404-.119-.44-.447-.537-.727-.533-1.535-1.236-2.094-2.96-2.131-2.784-.061-5.593-.35-8.292.673.082-.286.567-.459.334-.802-.19-.28-.497-.007-.755.034-.269.042-.547.028-.821.038z"/><path fill="#BE9160" d="M77.356 68.627c.504.549.667 1.222.705 1.94-.673-.488-.566-1.258-.705-1.94z"/><path fill="#B8964E" d="M104.9 23.677c-.776 1.004-2.032 1.185-3.063 1.737-1.772.949-3.23 2.313-4.87 3.428-.945.642-1.648 1.589-2.694 2.096-.012-.487.479-.561.707-.852.288-.367.194-.547-.24-.614.135-1.138 1.13-1.296 1.921-1.687 2.635-1.7 5.136-3.606 7.878-5.143.348-.195.655-.468 1.094-.399-.198.45-.67.529-1.03.759-.166.106-.38.215-.31.446.09.302.393.177.607.229z"/><path fill="#D6BE70" d="M114.547 22.958c-.768-1.698-2.167-1.086-3.414-.888-.475.076-.933.202-1.417.133 1.284-.858 2.718-.81 4.154-.64.412.05.676.184.632-.439-.198-2.75-.072-2.82 2.485-1.557-2.406.075-2.413.077-1.694 2.512.157.534.356 1.035-.48 1.12-.218.063-.296-.029-.266-.24z"/><path fill="#B8964E" d="M109.04 22.255c-.601.64-1.438.554-2.195.714.554-.785 1.38-.73 2.195-.714z"/><path fill="#CAAC56" d="M107.535 21.474c.544-.857-.548-.903-.701-1.415.657-.053 1.108.311 1.306.857.097.268-.178.609-.605.558z"/><path fill="#B4965F" d="M104.655 18.848c-.793-.158-1.4-.615-1.932-1.195.876.023 1.462.516 1.932 1.195z"/><path fill="#B8964E" d="M106.847 22.967c-.543.526-1.238.635-1.946.709.526-.572 1.16-.849 1.946-.709z"/><path fill="#FDDE5F" d="M6.308 120.343c.038-1.805 1.164-3.226 1.76-4.83 1.035-2.781 1.66-5.71 3.016-8.374.036-.07.035-.158.064-.232.235-.59.486-1.471 1.152-1.3.62.161.13.96.097 1.494-.065 1.043-.202 2.13.014 3.128a5.013 5.013 0 0 1-.172 2.706c-.917 2.654-.187 4.8 1.695 6.686.54.54.757 1.147.871 1.91.183 1.21.813 2.172 2.157 2.445.836.169 1.587.48 2.222 1.115.597.597 1.408.886 2.18 1.237 2.503 1.138 3.533 3.464 2.817 6.311-.228.905-.47 1.872.41 2.416 1.247.77 2.384 1.967 4.118 1.54.809-.198.953-.719.718-1.36-.799-2.173.06-4.074.976-5.937.325-.662.641-1.4 1.328-1.837.773-.492 1.381-.478 1.911.4.54.892.795 1.854.797 2.857.006 2.616 1.221 4.945 1.683 7.448.167.902.347 1.815.368 2.726.02.882.502 1.255 1.116 1.8 2.166 1.92 4.323 1.041 6.477.183 1.831-.73 3.69-1.341 5.596-1.834.567-.147 1.091-.206 1.65-.012.848.294 1.443-.048 1.71-.853.337-1.02.587-2.07.875-3.107.467.12.709.52.986.846 2.316 2.718 4.955 5.097 7.683 7.385l.753.68c.871 1.352 2.44 1.71 3.663 2.561 1.4.975 1.422 1.409.288 2.684-.665.748-1.46 1.385-2.004 2.241-1.118 1.328-2.507 2.34-3.9 3.35-.772.164-1.315-.23-1.796-.75-2.283-2.469-4.763-4.728-7.308-6.918-1.035-.89-1.714-.818-3.312.474-.569.46-1.158.858-1.812 1.172-.914.178-1.363-.273-1.442-1.127-.137-1.49-.848-2.606-2.057-3.465-.566-.401-.997-.566-1.54.051-.473.537-.966 1.065-1.592 1.463-1.22.776-2.099.721-2.96-.462-.472-.649-1.063-1.092-1.703-1.49-1.259-.78-2.266-1.703-2.799-3.173-.308-.849-1.107-1.483-1.906-1.95-1.592-.932-3.22-1.802-4.848-2.673-.467-.25-.854-.582-1.256-.918-1.634-1.367-2.363-2.894-1.899-5.17.558-2.736-.319-4.021-2.883-5.269-1.469-.715-2.914-1.456-4.569-1.766-1.099-.206-1.899-1.042-2.124-2.222a12.06 12.06 0 0 0-1.744-4.317c-1.02-1.586-1.331-3.258-.323-5 .79-1.366.162-2.432-.891-3.433-.728.793-.878 1.88-.896 2.926-.017 1.06-.238 1.98-.907 2.791-1.164 1.412-1.751 3.127-2.508 4.753z"/><path fill="#E0BB4F" d="M65.283 153.466c.413-1.124 1.338-1.88 2.132-2.675.725-.726.548-1.167-.073-1.648-.597-.461-1.223-1.062-1.912-1.188-1.218-.223-1.707-.992-2.094-1.976 1.625-.32 4.601 1.18 5.185 2.722.316.835.367 1.712-.586 2.344-1.002.664-1.621 1.772-2.652 2.421z"/><path fill="#FDDD5F" d="M96.661 27.785c-.557.657-1.445.937-1.92 1.687-1.332.955-2.603 1.986-3.738 3.167-.46.478-.963.63-1.505.334-2.838-1.546-5.54-3.274-7.511-5.922-.539-2.458-.314-4.892.207-7.32.076-.354.085-.718.453-.918-.45 1.203.592 2.34.16 3.572-.072.206.28.705.555.866 1.859 1.086 3.592 2.565 5.944 2.352 2.221-.2 4.36.491 6.558.505.602.004.68.34.367.79-.397.571-.325.888.43.887z"/><path fill="#FBE974" d="M53.186 136.31c-.126 1.794-.84 2.58-2.6 2.916-1.711.325-3.233 1.178-4.853 1.758-.603.215-1.227.37-1.84.552-.482.142-.877.064-1.107-.435.192-.292.741-.178.76-.667.787-.117 1.372-.625 1.9-1.131 1.624-1.56 3.532-2.728 5.384-3.967.937-.626 1.516-.33 2.356.974z"/><path fill="#CAA348" d="M56.082 118.16c.487-.78 1.552-.45 2.117-1.092.005-.005.21.109.229.19.023.092-.031.284-.095.306-.731.248-.998 1.138-1.794 1.286.058-.369-.023-.646-.457-.69zM55.578 119.593c-.264.46-.573.906-.469 1.482-.942-.841-.243-1.164.469-1.482zM54.376 118.86c.37-.5.872-.709 1.485-.669-.354.537-.865.725-1.485.668z"/><path fill="#FC9039" d="M80.495 64.524l-1.45-.02c-.203-.495-.707-.533-1.105-.626-1.111-.258-1.59-1.135-1.747-2.043-.483-2.798-.369-5.635-.276-8.463.026-.785.724-1.338.724-2.13 1.233-.645 2.322-1.646 4.01-1.438-.49-.451-1.042-.062-1.337-.497 3.885-.583 7.751 3.087 6.97 8.115-.247 1.586-.494 3.105-1.515 4.457-.603.799-1.404 1.296-2.092 1.954-.5.401-1.153.419-1.71.676l-.472.015z"/><path fill="#FDDE5F" d="M33.626 161.915c-.501-.52.096-.736.332-.927 2.454-1.985 4.729-4.195 7.38-5.933.376-.246.767-.443 1.237-.389-.513.94-1.444 1.483-2.23 2.105-2.21 1.75-4.243 3.74-6.72 5.144z"/><path fill="#FDDB5D" d="M168.537 55.132c-1.03.198-1.633 1.075-2.478 1.576-1.54.913-1.575.962-2.834-.2-1.589-1.467-3.504-1.269-4.628.62-1.373 2.307-2.66 4.667-2.475 7.517.091 1.412.578 1.79 1.903 1.208 1.027-.451 2.013-.995 3.02-1.491.427-.21.88-.538 1.339-.161.504.415-.066.783-.137 1.176-.035.196-.05.396-.073.594-1.422.112-2.509 1.007-3.656 1.684-.767.453-1.519.827-2.361 1.11-1.276.428-2.34-.486-2.13-2.208.545-4.45 2.285-8.478 5.16-11.966.518-.629 1.2-1.124 1.953-1.37 1.549-.505 2.748-1.436 3.766-2.662.363-.437.795-.807 1.339-.997.36-.126.661-.784 1.119-.21.37.464.524 1.003.158 1.562-.374.571-.732 1.147-.899 1.823-.088.355-.228.746.078 1.018.319.283.704.094 1.003-.106.802-.535 1.574-1.074 2.639-.78.206.058.521-.176.752-.329 2.059-1.362 3.682-3.17 5.192-5.093.294-.374.569-.8 1.133-.802-.626 1.654-1.628 3.048-2.953 4.21-.619.542-1.263 1.056-1.895 1.583-1.214 1.094-2.625 1.894-4.035 2.694z"/><path fill="#845228" d="M140.851 95.904c.601-.504 1.174-1.057 1.994-1.195-.563.567-1.057 1.25-1.994 1.195z"/><path fill="#8C522B" d="M143.992 93.97c.246-.539.73-.664 1.254-.719-.236.556-.632.834-1.254.72z"/><path fill="#C4A05C" d="M8.2 105.588c-.081.559-.135 1.13-.663 1.49.028-.583.01-1.186.664-1.49z"/><path fill="#FD913B" d="M135.112 77.331c2.025-.21 3.949.172 5.797.992.232.407.544.729.965.94 2.751 2.805 2.413 5.87.7 8.361-1.303 1.894-4.506 3.672-7.161 2.689-1.848-.685-3.384-1.61-4.511-3.069-.99-1.28-1.3-2.798-.869-4.574.692-2.859 2.51-4.394 5.079-5.339z"/><path fill="#6B2D11" d="M130.266 63.772c.717-2.034 1.76-3.862 3.378-5.324.388.742-.232 1.207-.535 1.713-.358.598-.312 1.018.193 1.472.329.295.664.587.977.898.85.848 1.32 1.796.895 3.044-.276.81-.358 1.657-.02 2.485.328.804.883 1.111 1.73.768.76-.308 1.39-.787 1.978-1.352.939-.902 1.961-1.679 3.323-1.817.707-.073.752-.497.732-1.112-.025-.81-.666-1.454-.516-2.284.249-.137.477-.098.69.079l.01-.002c.562.188 1.034.565 1.586.771.497.186.559.493.316.92l-.015.877c-.219.903-.59 1.745-1.015 2.565-.416.527-.675 1.305-1.642.71-.375-.23-.872.043-1.218.338-.883.754-1.861 1.408-2.552 2.373-.786.765-1.715.845-2.718.574-.397-.188-.771-.418-1.166-.612-1.18-.581-1.81-1.535-1.816-2.868-.004-.958-.06-1.916.327-2.84.196-.466.167-.98-.306-1.289-.536-.349-1.01-.091-1.38.327-1.449 1.64-1.684 3.555-1.193 5.606.236.989.167 1.1-.822 1-.164-.126-.27-.28-.24-.498l-.194-.424c-.424-2.197.54-4.119 1.213-6.098z"/><path fill="#79451E" d="M129.516 70.584c.488.16.909.31.606-.523-.815-2.243-.346-4.273 1.107-6.118.517-.658 1.198-.87 1.907-.47.733.413.668 1.17.36 1.81-.54 1.122-.378 2.303-.253 3.425.09.8.658 1.532 1.524 1.857.41.155.848.265 1.068.707-1.38.463-2.984-.788-3.175-2.514-.097-.88-.014-1.77-.042-2.654-.012-.346.089-.792-.368-.923-.397-.114-.669.197-.924.456-1.404 1.429-.906 4.905.903 6.145 1.033.708 2.153 1.281 3.349 1.64 1.397.419 2.609-.324 3.757-.927 1.054-.553 1.6-1.621 2.067-2.853-.747-.004-1.113.48-1.587.709-.419.201-.793.62-1.31.219.646-1.1 1.813-1.648 2.692-2.503.237-.231.896-.382 1.103-.227.769.579 1.103.038 1.512-.42.153.152.127.313.023.478l-.053.407c-.23.515-.381 1.068-.739 1.521l-1.905 2.878c-.426.718-.814 1.474-1.726 1.695-2.136.829-4.268 1.122-6.473.184-.766-.326-1.321-.866-1.932-1.366-.45-.557-.933-1.085-1.34-1.677-.212-.307-.442-.582-.151-.956z"/><path fill="#8C7044" d="M145.003 64.03c.145-.68-.437-.513-.758-.703-.427-.252-.767-.65-1.145-.987.392-.002.79.036 1.176-.015.778-.104 1.08.247 1.044.982-.051.265-.029.562-.317.723z"/><path fill="#FDDB5D" d="M143.835 67.898l-.023-.478 1.176-2.512c.078 1.175-.53 2.085-1.153 2.99zM155.287 81.378c-.15.338-.22.696-.62.698-.21.001-.381-.152-.304-.396.094-.298.186-.644.585-.65.22-.005.328.171.339.348zM139.412 74.4l1.726-1.696.028.288c-.414.683-.698 1.527-1.754 1.407zM143.043 69.826c.076-.59.285-1.114.739-1.52.04.646-.09 1.209-.739 1.52z"/><path fill="#FEED78" d="M111.676 133.882c-.908.577-1.405 1.516-2.024 2.34-.759 1.01-1.03.986-1.634-.082-.492-.871-.608-1.82-.677-2.754-.29-3.963-2.819-6.796-6.717-7.496-2.457-.441-4.577.15-6.39 1.86-.523.494-.56 1.334-1.27 1.704-.562.294-.896.339-.873-.46.021-.723-.016-1.446-.028-2.17-.353-.406-.275-.871-.184-1.339.376-.879.541-1.809.654-2.751 1.016-3.738 3.675-5.711 7.234-6.698.586-.162 1.246-.271 1.727.185.532.506.214 1.123.002 1.688-.367.984-.472 2.034-.783 3.035-.158.507-.189 1.093.303 1.906.22-1.358.358-2.452.757-3.478.174-.448.291-.918.49-1.36.948-2.107 2.404-2.694 4.568-1.836 1.406.559 2.598 1.455 3.719 2.438.793.695.798 1.318.006 1.886-2.117 1.516-3.203 3.657-3.842 6.086.446.28.455.27.545-.678.628-2.117 2.03-3.621 3.866-4.727.85-.511 1.639-.206 1.92.72.632 2.082 1.194 4.189.778 6.405-.636 1.499-.41 3.223-1.223 4.676-.22.393-.27.956-.924.9z"/><path fill="#FDDC5E" d="M98.788 128.306c2.555.095 4.152 1.27 5.364 3.028.931 1.349 1.916 2.667 2.651 4.145.248.498.328.955.089 1.488-.37.824-.968 1.58-.823 2.58.016.11-.142.326-.26.36-.942.281-1.96.404-2.388 1.525-.065.17-.448.06-.407-.181.184-1.101-.714-1.672-1.213-2.378-1.304-1.848-2.743-3.592-4.488-5.073-1.09-.925-2.07-1.983-3.071-3.01-.367-.376-.226-.834.22-.972 1.557-.479 2.972-1.401 4.326-1.512z"/><path fill="#9F7436" d="M113.579 128.297c.258-2.118-.207-4.156-.764-6.167-.176-.637-.504-1.291-1.468-.702-1.837 1.123-3.241 2.553-3.805 4.688-.3.378-.35 1.169-1.16.701.539-2.621 1.644-4.919 3.908-6.48.546-.376.85-.789.35-1.217-1.695-1.451-3.376-2.958-5.84-2.955-.875 0-1.457.286-1.815 1.063-.723 1.567-1.396 3.147-1.459 4.91-.017.479.026 1.093-.662 1.054-.686-.04-.553-.675-.562-1.135-.031-1.584.493-3.055 1.011-4.512.429-1.206.269-1.583-.966-1.274-3.008.75-5.768 1.945-6.923 5.202-.16.453-.593.77-.601 1.288-.337.863-.448 1.785-.7 2.67l-.06 1.394c-.423.566-.105 1.239-.266 1.833-.11.402.053 1.106-.65 1.05-.591-.047-.45-.643-.473-1.054-.028-.512-.02-1.025-.028-1.538l.97-4.831c.644-1.8 1.71-3.325 3.2-4.5 3.315-2.61 6.968-3.73 11.196-2.566 1.488.409 2.783 1.163 4.164 1.762.536.365 1.019.79 1.462 1.262.15.232.25.53.459.685 1.151.853 1.77 2.035 2.175 3.362.354.596.272 1.313.532 1.935l.007 1.194c.44 1.41-.231 2.73-.35 4.094-.02.222-.219.422-.382.598-.184.198-.377.481-.684.337-.251-.119-.147-.425-.146-.653.003-.52.273-.987.33-1.498z"/><path fill="#C5A44D" d="M113.579 128.297c.194.667-.373 1.289-.11 2.075 1.248-1.503 1.322-3.22 1.342-4.953.468.683.118 1.455.236 2.176-.403 1.7-.633 3.432-1.18 5.107-.587 1.799-1.494 3.415-2.448 5.021-1.42.845-2.37 2.208-3.595 3.269-.459.396-.867.854-1.525.86-.297.002-.689.138-.836-.267-.134-.367.232-.475.443-.617 1.846-1.238 3.292-2.864 4.542-4.675.514-.745 1.064-1.483 1.227-2.411 1.04-1.187 1.16-2.697 1.444-4.145.099-.501.105-1.024.46-1.44z"/><path fill="#FDDB5D" d="M127.622 101.494c-.007-.535-.643-.863-.478-1.454.977.28 1.38.922 1.213 1.924l-.021.02-.714-.49z"/><path fill="#FEF397" d="M25.63 100.008c-.033.991-.14 1.975-1.266 2.345-1.144.375-1.815-.295-2.327-1.198-.498-.878-1.257-1.291-2.25-1.356-1.712-.111-2.532-.935-2.595-2.66-.044-1.204-.09-2.417.008-3.614.223-2.703 2.034-4.346 4.142-5.657.887-.552 1.682-.007 2.16.898.687 1.298.916 2.742 1.113 4.147.308 2.21.54 4.43 1.01 6.615.034.153.005.32.005.48z"/><path fill="#FDCF4B" d="M38.69 152.698c.107.916-.394 1.657-.932 2.363-1.651 2.168-3.303 4.327-5.644 5.847-1.242.807-2.456.983-3.71.195-1.328-.835-2.86-1.446-3.193-3.334-.145-.822-.99-1.348-1.664-1.85-2.368-1.761-4.307-3.924-6.221-6.16-1.494-1.743-2.955-3.483-4.118-5.455-1.445-2.452-2.79-4.947-3.07-7.87-.08-.818-.248-1.689-1.266-1.997-.67-.203-1.564-.047-1.962-.707-.498-.826-.471-1.85-.581-2.797-.077-.664-.142-1.374.28-1.99.235-.345.5-.655.966-.606.5.052.817.36.885.845.064.456.236.86.485 1.222.519.752 1.404.753 1.981.032.1-.125.194-.256.295-.381.954-1.182 1.024-1.198 1.82.055.435.686.9 1.142 1.79 1.197.57.035 1.13.345 1.633.718.643.476 1.307 1.075 2.047 1.238 1.978.436 2.471 1.952 2.713 3.55.263 1.741 1.13 3.072 2.316 4.242.696.687 1.157 1.42 1.14 2.416-.008.423.139.852.448 1.087 1.388 1.05 2.52 2.476 4.345 2.896.94.216 1.778.65 2.53 1.324 1.214 1.09 2.64 1.736 4.337 1.794 1.696.057 2.356.719 2.35 2.126z"/><path fill="#FEE366" d="M95.438 79.997l.057 1.169c.795 1.793.397 3.454-.542 5.067a1.79 1.79 0 0 0-.234.793c-.06 1.385-1.383 2.062-1.801 3.268-.197.57-.536.04-.772-.206-1.437-1.494-2.982-2.78-5.177-3.009-.947-.099-1.826.118-2.698.356-.664.18-.831.8-.876 1.443-.084 1.189.172 2.363.043 3.57-.114 1.056.596 1.473 1.788 1.29 2.135-.327 3.415.257 4.537 2.111.743 1.227 1.514 2.327 3.184 2.379.556.017 1.09.462 1.522.917.72.759 1.546 1.428 2.2 2.239 1.036 1.284 2.08 1.99 3.893 1.396 1.026-.337 2.207.182 3.015 1.12.165.19.345.522.683.331.244-.137.16-.433.156-.663-.019-.923-.062-1.846-.081-2.769-.016-.76.161-1.459.885-1.843.575-.306 1.103-.081 1.536.34.588.572.331 1.27.205 1.919-.139.707-.187 1.345.579 1.732.356.294.329.707.344 1.106-.08.83-.304 1.632-.043 2.5.813 2.694 4.1 5.215 6.937 5.24 2.907.024 4.956-2.876 3.845-5.685-1.153-2.912-3.452-4.702-6.449-5.474-1.107-.286-1.913-.758-2.116-1.845-.367-1.958-1.206-3.854-.881-5.916.01-.427-.003-.855.07-1.278.023-.115.06-.227.103-.336.263-.856 1.108-1.01 1.728-1.435.26-.413.204-1.024.775-1.24a.4.4 0 0 1 .305.13c-.215 1.099-.415 2.198-.888 3.23-.507 1.106-.344 2.29-.28 3.446.026.448.298.92.874.742 1.56-.48 2.442.495 3.185 1.54 1.094 1.54 2.235 3.017 3.548 4.388 1.706 1.78 2.338 4.051 2.504 6.478.164 2.388-.273 4.558-2.089 6.271-1.34 1.266-3.803 1.687-5.442.925-2.648-1.23-5.296-2.458-8.248-2.779-.676-.073-1.454.11-2.021-.164-1.994-.964-4.335-1.604-4.878-4.248-.217-1.054-.757-1.786-1.768-2.262-.902-.424-1.322-1.371-1.842-2.179-1.304-2.024-3.084-3.073-5.558-2.865-.937.079-1.637.627-2.44.972-1.052.452-1.614.157-1.711-1-.06-.72-.026-1.448-.013-2.172.02-1.178-.516-1.941-1.69-2.123-1.339-.207-2.035-1.008-2.328-2.26-.313-1.333-.72-2.617-1.515-3.769-.982-1.422.046-3.41 1.187-4.222 2.9-2.065 6.022-2.495 9.34-1.147 2.021.82 2.877.513 3.447-1.632.386-1.453 1.172-2.642 1.906-3.887z"/><path fill="#A46B33" d="M104.896 75.92c-1.096-1.69-2.078-3.397-1.99-5.54.037-.876-.27-1.647-1.244-2.13-1.07-.53-1.856-1.474-2.485-2.523-.194-.324-.364-.624-.327-1 .019-.19.038-.458.16-.544.254-.18.442.073.584.255.467.596.88 1.238 1.382 1.802.472.528.94 1.111 1.73 1.203 1.508.866 3.128.394 4.705.374.307-.003.613-.227.891.076.32.446.154.847-.115 1.238-.508.468-1.183.643-1.764.99-1.997 1.19-2.347 2.322-1.307 4.349.163.316.394.604.452.97.009.194-.04.365-.19.495l-.482-.015z"/><path fill="#C88B40" d="M105.378 75.935l.019-.546c.484-.12.732.245 1.014.512 1.891 1.786 4.193 2.079 6.628 1.778 1.194-.148 3.043-2.362 3.108-3.548.03-.567-.276-.75-.748-.908-1.179-.396-2.43-.573-3.556-1.12-1.481-.72-2.948-1.477-3.804-2.999l.263-1.211c1.163.887 2.16 1.951 3.42 2.757 1.568 1.002 3.168 1.45 4.991 1.383 1.687-.063 1.592-.027 1.146 1.685-.667 2.557-2.257 4.126-4.664 5.04-1.558.591-3.003.154-4.435-.363-1.352-.488-2.67-1.07-3.382-2.46z"/><path fill="#A67834" d="M111.9 88.673c-.32.41-.437.893-.491 1.397-.613.309-1.448.117-1.88.835-.642.705-.39 1.614-.526 2.426-.483 2.902-.485 5.83-.286 8.76.013.198.076.396.039.596-.053.283-.118.579-.491.568-.293-.008-.401-.237-.437-.486a2.523 2.523 0 0 0-.233-.806c-.014-2.687-.013-5.375-.049-8.062-.015-1.158.634-2.142.772-3.254.262-.512.626-.946 1.205-1.052.706-.129 1.044-.65 1.424-1.149l.481-.485c.031-.026.059-.06.094-.076.361-.162.825-.447 1.056.023.285.58-.447.503-.678.765z"/><path fill="#D8B754" d="M111.9 88.673l.602-.687c-.393-.275-.734.103-1.074-.025.008-.04.006-.108.025-.114 1.577-.558 3.005-1.451 4.89-.773 2.735.983 4.574 2.977 6.462 4.977-.115.282-.234.561-.501.74-1.45-1.11-2.437-2.747-4.048-3.66-1.261-.717-2.463-1.77-4.125-.772-.532.32-1.338.063-1.973.355l-.258-.041z"/><path fill="#C29C46" d="M122.304 92.792c-.013-.369.015-.71.5-.741 2.42 2.383 4.125 5.297 5.97 8.102.386.588.918 1.488-.417 1.811-.18-.784-.644-1.387-1.213-1.924.027-.511-.214-.92-.5-1.31l-4.34-5.938z"/><path fill="#CCA446" d="M107.595 101.963c.494.196.36.76.612 1.085.221-.008.317-.134.292-.306-.538-3.665-.092-7.303.292-10.943.05-.479.213-.938.694-1.188.199.242.168.486.009.732v.001c-.265.624-.228 1.288-.255 1.944-.257 2-.01 4.009-.12 6.01.012 2.077-.037 4.146.623 6.173.32.98-.031 1.358-1.011 1.544-.845-.34-.797-1.173-1.013-1.855-.104-.329.07-.705-.148-1.023l-.03-1.19.055-.984z"/><path fill="#C5A54F" d="M109.03 62.56c-.22-.376-.487-.844-.153-1.172.261-.256.588.203.896.316.285.106.602.123.906.179-.191 1.099-1.042.59-1.648.677z"/><path fill="#D8B754" d="M110.947 88.446c-.032.606-.454.984-.933 1.13-.686.208-1.178.641-1.697 1.07-.02-.612.43-1.068.861-1.121.806-.1 1.167-.753 1.769-1.079z"/><path fill="#9E5948" d="M190.45 15.229c-1.582 1.072-3.026 2.307-4.486 3.541-1.854 1.569-4.295 1.982-6.628 2.5-.92-.512-.972-1.451-.098-2.439 1.159-1.308 2.558-2.331 4.102-3.116 1.815-.922 3.507-2.097 5.49-2.683.822-.244 1.692-.272 2.198.385.506.658-.273 1.231-.578 1.812z"/><path fill="#FEF085" d="M114.547 22.958l.266.241c.058.054.126.162.173.153 3.695-.673 7.455-.094 11.165-.61 4.484-.624 7.39 1.172 8.957 5.47.562 1.543 1.54 2.362 3.13 2.8 1.668.457 3.401.816 4.694 2.255 1.955 2.177 2.684 7.129 1.117 9.59-1.069 1.68-2.953 2.292-4.67 3.026-2.36 1.008-4.791 1.844-7.162 2.825-2.348.972-4.34 2.584-6.569 3.788-3.341 1.804-6.573 1.91-9.784-.16-1.817-1.172-3.655-2.311-5.438-3.542-1.062-.733-2.129-1.128-2.462-2.6-.302-1.334.027-2.563.205-3.8.302-2.104.017-2.584-1.94-3.273-1.136-.401-2.248-.709-3.444-.817-.899-.082-1.656-.44-2.172-1.313-.263-.442-.831-.762-1.327-.998-2.374-1.134-2.391-3.944-1.663-5.732.978-2.399 2.88-3.992 5.168-4.712 3.822-1.204 7.675-2.476 11.756-2.59z"/><path fill="#3F1A0D" d="M142.358 62.373c.868.72.76 1.792.948 2.743.1.51-.208.86-.761.844-1.508-.042-2.558.824-3.523 1.8a6.324 6.324 0 0 1-1.969 1.349c-1.134.504-1.778.2-2.23-.985-.354-.922-.268-1.848.076-2.698.447-1.105-.029-1.937-.722-2.586-.624-.584-1.676-1.132-1.76-1.774-.092-.689.759-1.5 1.186-2.265.053-.095.03-.234.041-.353 1.983-2.496 4.562-3.703 7.743-3.397 1.7.163 2.895 1.186 3.652 2.711.212 1.646.206 1.654-1.432 1.758-.238.015-.48-.009-.712.044-1.118.257-1.512 1.252-.87 2.184.134.196.283.384.333.625z"/><path fill="#3E190C" d="M98.116 41.53c1.556-1.8 4.787-2.69 6.756-1.861.46.402.753.902.94 1.485.507 1.584.456 1.703-1.096 2.265-.264.096-.477.282-.715.422-1.231 1.015-1.245 1.082-.51 2.407a.164.164 0 0 0 .017.152c.452.31 1.227.268 1.15 1.147-.083.952-.386 1.798-1.08 2.46a.46.46 0 0 1-.734-.109c-.373-.66-.954-.526-1.562-.566-2.187-.145-4.311-.51-5.783-2.404-1.009-1.298-.978-1.97.155-3.118.787-.797 1.565-1.603 2.462-2.28z"/><path fill="#692B11" d="M98.116 41.53c-.38 1.075-1.452 1.509-2.153 2.291-1.176 1.313-1.24 1.826-.056 3.123 1.622 1.776 3.745 2.133 5.981 1.994.543-.034.852-.012 1.008.487.228.73.457.59.827.079.882-1.22.838-2.097-.216-3.104 1.58-.08 1.6-.036 1.415 1.517-.084.701-.536 1.228-.732 1.868-.44.967-1.012 1.855-1.625 2.719l-.308.418c-.251.324-.513.562-.861.108a.968.968 0 0 1-.061-.517c.025-.298.234-.655-.124-.858-.332-.188-.592.073-.83.282-.208.182-.386.394-.576.596a3.35 3.35 0 0 1-.237.25c-.884 1.41-2.255 1.297-3.614 1.11-1.162-.16-2.238-2.363-1.874-3.733.062-.235.232-.433.273-.663.081-.464.263-1.05-.226-1.32-.519-.286-.695.353-1.01.615-.307.255-.546 1.034-1.067.2.6-2.465 2.297-4.203 4.008-5.904.603-.599 1.061-1.456 2.058-1.558z"/><path fill="#81481F" d="M101.514 52.917c.245.385.495.056.743.005-1.726 3.23-4.243 5.333-8.706 4.342-.957-.358-2.027-.502-2.68-1.428-.743-2.477-.186-4.73 1.179-6.844.56.384.595-.152.84-.43.389-.443.702-1.3 1.485-.831.705.422.569 1.36.265 1.852-.84 1.359.033 2.373.459 3.486.112.294.393.566.74.547 1.178-.063 2.54.525 3.366-.898.07-.122.26-.175.394-.26.318.604-.072 1.005-.44 1.364-1.081 1.053-2.4 1.083-3.714.649-1.287-.425-1.718-1.249-1.736-2.835-.008-.706.039-1.416-.014-2.086-.443-.091-.597.14-.669.348-.501 1.458-.84 2.954-.346 4.468.447 1.366 1.178 1.766 2.622 1.872 2.067.153 3.672-.549 4.883-2.251.32-.45.571-1.11 1.329-1.07z"/><path fill="#FAF6DC" d="M144.318 59.746c.565.236 1.085.473.94 1.27-.133.738-.665.93-1.264 1.056-.27.057-.554.042-.832.06-.983-.024-1.72-.54-1.735-1.214-.014-.58.8-1.382 1.551-1.442.453-.036.97-.19 1.34.27z"/><path fill="#F6F4F2" d="M103.492 46.248c-1.327-.722-1.262-1.435.228-2.505.7-.25 1.382-.806 2.139-.131.645 1.232.384 1.949-.902 2.471l-1.465.165z"/><path fill="#7A5F54" d="M144.318 59.746c-.318-.027-.636-.084-.953-.074-.767.023-1.518.245-1.642 1.087-.146.993.7 1.178 1.438 1.372a.618.618 0 0 0-.07.21l-.733.031c-.64-.413-1.424-.892-1.11-1.73.319-.85 1.012-1.567 2.104-1.438 1.113.131 1.913-.038 1.686-1.442.596 1.349.45 1.75-.72 1.984z"/><path fill="#A18755" d="M105.897 43.773c-.72-.433-1.452.012-2.178-.03.321-.455.761-.726 1.316-.696.858.046.896-.474.809-1.092-.119-.847-.63-1.532-.972-2.287 1.163.617 1.67 2.282 1.236 4.055-.054.086-.125.099-.21.05z"/><path fill="#79451E" d="M130.266 63.772c-.013 1.126-.527 2.146-.824 3.19-.279.983-.295 1.936-.389 2.908-.575-2.227.096-4.207 1.213-6.098z"/><path fill="#FEF085" d="M105.897 43.773a.347.347 0 0 1 .21-.05c.454.472.674.964.25 1.591-.344.51-.638 1.05-1.4.77.808-.57 1.223-1.299.94-2.311z"/><path fill="#B09549" d="M129.516 70.584c.094 1.106 1.262 1.603 1.491 2.633-1.24-.762-1.966-1.968-1.76-2.923l.269.29z"/><path fill="#A78842" d="M102.565 52.504c.401-.99.917-1.912 1.625-2.719-.033 1.21-.778 1.995-1.625 2.719z"/><path fill="#BB9B4C" d="M90.87 55.836l2.68 1.428c-1.095-.096-2.214-.149-2.68-1.428z"/><path fill="#FDDF64" d="M80.966 64.51c.473-.473 1.108-.535 1.711-.677-.356.768-1.065.643-1.71.676z"/><path fill="#FEEE78" d="M79.981 83.7c-.014-.805.418-1.709.116-2.701-.112-.367.176-.976.464-1.322 1.417-1.703 3.168-2.66 5.423-3.168 2.395-.54 4.35.548 6.504.848.35.049.718.367.412.65-.94.87-.217 1.79-.202 2.684.008.436.137.875.111 1.307-.127 2.092-.837 2.574-2.796 1.911a4.884 4.884 0 0 0-2.708-.143c-.807.176-1.676.083-2.518.084-1.321.001-2.636-.071-3.87.604-.492.27-1.057.247-.936-.754z"/><path fill="#FEF08A" d="M117.434 93.938c-.169-.79.457-1.416 1.264-1.855.825-.45 1.628.048 2.218.481 1.479 1.086 2.172 2.727 2.578 4.466.199.851-.073 1.612-.918 2.023-.885.43-1.855.507-2.628-.113-1.492-1.195-2.458-2.73-2.514-5.002z"/><path fill="#FEEE78" d="M76.326 89.527c-.43-1.537.372-2.543.824-3.624.042-.101.287-.213.387-.177.322.114.325.433.292.706-.133 1.13-.822 1.983-1.503 3.095z"/><path fill="#FEE366" d="M111.638 118.243c-.685-.192-1.084-.715-1.461-1.262.72.15 1.251.52 1.46 1.262zM114.804 124.225c-.448-.57-.436-1.267-.532-1.935.564.538.565 1.232.532 1.935z"/><path fill="#C66525" d="M138.506 70.57c.875-.016 1.365-.74 2.04-1.121.356-.201.75-.51 1.103-.243.48.365.043.826-.117 1.183-.95 2.113-2.772 3.02-4.911 3.498-1.06.238-1.892-.421-2.717-.777-1.39-.598-2.76-1.37-3.393-2.986-.475-1.212-.29-3.814.577-4.77.378-.416.86-.815 1.454-.623.615.2.364.813.38 1.263.025.762-.007 1.526.006 2.288.031 1.744 1.154 2.892 2.907 2.99.969.066 1.944.154 2.67-.702z"/><path fill="#FEEE78" d="M106.214 117.454c.793.267 1.714.658 2.496 1.292.447.363.384.845.024 1.278-1.255 1.505-2.022 3.29-2.845 5.036-.265.562-.533.62-1.008.345-.755-.434-1.37-1.122-2.302-1.235-.26-.032-.269-.243-.193-.46.503-1.43.526-2.973 1.063-4.4.335-.888 1.653-1.89 2.765-1.856zM94.989 122.964c.02-1.083.783-1.746 1.271-2.469.734-1.085 1.858-1.863 3.013-2.527.194-.112.433-.31.659-.123.207.172.148.448.066.676-.164.452-.345.898-.528 1.342-.344.836-.551 1.705-.258 2.579.334.996-.198 1.252-.996 1.272-.727.019-1.403.114-2.105.374-1.12.415-.88-.661-1.122-1.124z"/><path fill="#D3B659" d="M92.124 125.43c-.086-.972.203-1.848.699-2.669-.122.92-.096 1.877-.7 2.67z"/><path fill="#FDDC5E" d="M106.382 126.817c.581.089.728-.542 1.16-.7.078.58-.153 1.004-.706 1.177-.365.114-.468-.158-.454-.477z"/><path fill="#FDDB5D" d="M108.762 99.32c.1-2.095-.245-4.209.26-6.287.128-.138.199-.39.472-.238-.367 2.052.577 3.926.83 5.895.096.74.55 1.534 1.458 1.558 2.263.06 3.704 1.569 5.246 2.878 1.718 1.457 2.467 3.355 2.087 5.594-.358 2.11-2.523 3.627-4.725 3.4-2.363-.244-4.327-1.5-5.814-3.128a4.9 4.9 0 0 1-1.006-4.855c.544.808.58 1.799.962 2.665 1.234 2.032 3.44 2.55 5.415 3.35 1.142.464 2.656-.36 3.29-1.449.632-1.087.515-2.317-.388-3.353-1.261-1.448-2.97-2.08-4.797-2.272-1.365-.144-2.137-.723-2.45-2.044-.148-.618-.379-1.232-.84-1.714z"/><path fill="#FDD958" d="M109.494 91.343l-.009-.732c.535-.558 1.268-.413 1.924-.54-.645.413-1.563.418-1.915 1.272zM109.494 92.795l-.471.238c-.032-.616.075-1.192.47-1.689l.001 1.45z"/><path fill="#FDA14D" d="M108.04 69.104c.93.303 1.44 1.176 2.176 1.733 1.68 1.267 3.634 1.551 5.513 2.09.707.203.796.483.773 1.05-.074 1.863-2.328 3.954-4.167 4.107-2.79.233-5.058-.684-6.938-2.695-2.19-2.658-1.343-4.582 1.84-6.053.25-.115.534-.156.802-.232z"/><path fill="#FDD958" d="M108.762 99.32c1.024.156.993 1.092 1.171 1.76.306 1.143.897 1.561 2.102 1.672 1.844.17 3.585.812 4.924 2.22 1.138 1.195 1.326 2.59.538 3.952-.698 1.207-2.3 1.836-3.707 1.554a5.367 5.367 0 0 1-2.354-1.112c-.277-.222-.606-.539-.912-.539-1.393 0-1.877-.81-1.992-2.025 1.117.166 1.16-.66.912-1.266-.827-2.025-.66-4.124-.682-6.216z"/><path fill="#FEF395" d="M132.912 45.422c-2.424-.247-4.345.582-5.958 2.447-2.077 2.4-4.925 2.865-7.801 2.172-2.388-.576-3.997-2.275-4.788-4.749-1.205-3.764-3.471-6.83-6.626-9.223a4.24 4.24 0 0 0-1.845-.809c-1.64-.304-3.19-.96-4.821-1.338-.979-.227-1.458-1.67-1.172-2.852.437-1.81 1.644-3.038 3.337-3.486 2.801-.74 5.355-2.295 8.187-2.721 1.993-.3 4.077-1.06 6.192-.1.707.322 1.666.154 2.504.107 2.517-.142 5.011-.014 7.48.501 1.882.393 3.302 1.36 4.053 3.211.482 1.19 1.2 2.271 1.633 3.492.297.838.878 1.372 1.826 1.53 1.827.303 3.536.915 5.134 1.91.892.554 1.351 1.243 1.379 2.22.078 2.804-1.263 4.848-3.61 6.218-1.556.907-3.155 1.851-5.104 1.47z"/><path fill="#B05B22" d="M101.514 52.917c-.487.575-1.003 1.128-1.454 1.73-1.243 1.66-4.156 2.519-6.054 1.755-1.219-.49-2.148-2.144-1.87-3.68.167-.921.042-1.88.43-2.78.192-.445.437-.748.854-.938.509-.231.738-.147.669.494-.078.714-.062 1.44-.063 2.162-.001 1.549.699 2.511 1.946 2.703 1.912.295 3.037-.296 3.627-1.905l.005-.01c.218-.16.416-.346.626-.516.722-.585.949-.492 1.302.507l-.018.478z"/><path fill="#81481F" d="M101.532 52.44c-.65-1.382-1.286-.021-1.929.009.251-.298.492-.606.756-.892.296-.323.684-.46 1.06-.21.427.284.493.685.113 1.092z"/><path fill="#FEF292" d="M85.939 82.848c-.442 0-.913.1-1.318-.02-1.04-.307-1.909-.856-2.134-2.048-.22-1.16.24-2.1 1.111-2.753 1.17-.876 2.568-1.151 4-.855 1.73.358 2.442 1.375 2.322 3.103-.089 1.29-1.336 2.42-2.896 2.599-.357.041-.723.006-1.085.006v-.032z"/><path fill="#FEF4A1" d="M118.421 26.603c1.938-.07 3.709-.102 5.404.52 1.545.566 1.894 1.04 1.851 2.657-.037 1.4.103 2.793-.178 4.203-.22 1.105-.688 1.993-1.538 2.63-1.105.826-2.066 1.796-2.981 2.802-.92 1.01-2 1.093-3.193.841-4.297-.905-6.852-3.919-8.919-7.474-.647-1.113-.023-3.051.994-3.866 2.577-2.066 5.557-2.538 8.56-2.313z"/></svg>